<svg width="701" height="529" viewBox="0 0 701 529" fill="none" xmlns="http://www.w3.org/2000/svg">
<path fill-rule="evenodd" clip-rule="evenodd" d="M618.33 499.364L616.531 480.311L635.647 480.772L635.463 502.588L618.33 499.364Z" fill="#F4AF8F"/>
<path fill-rule="evenodd" clip-rule="evenodd" d="M617.395 497.756C613.689 510.985 603.188 516.745 610.061 524.993H645.057C645.114 524.837 645.17 524.667 645.227 524.483C645.567 523.349 647.197 522.881 646.106 518.743C644.079 511.063 638.113 499.265 636.065 498.663C632.005 497.458 626.238 500.852 617.395 497.756Z" fill="#A1003F"/>
<path fill-rule="evenodd" clip-rule="evenodd" d="M607.822 518.573V518.588L607.78 520.026C607.879 522.074 608.701 523.888 610.437 525H645.064C647.742 522.47 646.609 520.182 646.113 518.751L607.822 518.573Z" fill="#140505"/>
<path fill-rule="evenodd" clip-rule="evenodd" d="M559.719 235.263L580.203 318.455L590.654 367.983L613.866 488.616C613.866 488.616 618.777 490.855 626.627 490.401C634.478 489.948 638.439 488.786 638.439 488.786C638.609 453.166 638.446 407.932 634.592 362.478C631.361 324.386 643.526 303.986 641.195 261.969C640.508 249.555 627.13 214.382 627.308 214.835L559.719 235.263Z" fill="#12496F"/>
<path fill-rule="evenodd" clip-rule="evenodd" d="M563.701 251.447L568.951 272.774C595.819 276.126 623.885 273.83 641.139 269.139C641.16 266.716 641.181 264.328 641.188 261.969C641.202 259.51 640.657 256.151 639.778 252.353C615.418 252.212 575.633 251.943 571.771 251.673C570.488 251.588 567.52 251.51 563.701 251.447Z" fill="#12143C"/>
<path fill-rule="evenodd" clip-rule="evenodd" d="M533.835 499.364L533.906 479.659L553.023 480.12L550.968 502.588L533.835 499.364Z" fill="#F4AF8F"/>
<path fill-rule="evenodd" clip-rule="evenodd" d="M532.567 495.148C523.079 506.393 502.666 508.802 494.127 511.615C487.212 513.897 483.882 521.564 489.253 525H554.688C554.744 524.844 554.801 524.674 554.858 524.49C555.829 521.259 558.372 498.153 551.57 498.67C547.347 498.982 542.019 500.016 532.567 495.148Z" fill="#A1003F"/>
<path fill-rule="evenodd" clip-rule="evenodd" d="M529.102 498.528C520.33 505.656 506.733 508.306 498.173 510.475C498.634 512.267 498.896 513.862 504.628 513.989C513.301 514.187 524.277 509.277 528.294 506.429C531.242 504.338 530.236 500.859 529.102 498.528Z" fill="#D5155F"/>
<path fill-rule="evenodd" clip-rule="evenodd" d="M486.652 518.573V518.588L486.61 520.026C486.709 522.074 487.531 523.888 489.267 525H554.702C554.759 524.844 554.815 524.674 554.872 524.49C555.063 523.859 555.524 520.572 555.751 518.751L486.652 518.573Z" fill="#140505"/>
<path fill-rule="evenodd" clip-rule="evenodd" d="M532.227 230.792L524.518 347.669L532.014 488.559C532.014 488.559 541.19 490.543 549.041 490.082C556.891 489.629 555.46 488.722 555.46 488.722L573.833 357.397C573.833 357.397 577.985 327.496 587.714 304.192C594.735 287.363 603.344 282.51 602.076 262.954C600.758 242.703 602.466 227.008 599.674 220.008C596.889 213.007 582.973 215.82 582.973 215.82L532.227 230.792Z" fill="#12496F"/>
<path fill-rule="evenodd" clip-rule="evenodd" d="M531.05 251.17L530.243 265.178C546.553 270.117 569.121 275.219 601.544 274.276C602.253 270.861 602.381 267.736 602.069 262.946C601.821 259.163 601.679 255.535 601.601 252.091C586.551 251.964 573.868 251.822 571.771 251.673C567.116 251.354 540.113 251.206 531.05 251.17Z" fill="#12143C"/>
<path fill-rule="evenodd" clip-rule="evenodd" d="M569.716 386.803L573.833 357.397C573.833 357.397 576.1 341.1 581.195 323.188L577.305 295.32L569.22 365.213L569.716 386.803Z" fill="#12143C"/>
<path fill-rule="evenodd" clip-rule="evenodd" d="M567.229 126.669C556.906 150.045 549.012 172.931 518.736 177.799C497.288 178.642 458.565 165.13 461.378 157.697C464.439 149.62 451.224 146.955 463.56 147.047C479.942 146.807 511.941 147.118 515.639 146.814C519.132 146.523 538.143 97.2287 565.288 87.0892C567.817 85.417 574.563 115.347 567.229 126.669Z" fill="#F79F2D"/>
<path fill-rule="evenodd" clip-rule="evenodd" d="M425.617 147.458C426.22 148.436 426.269 149.882 427.332 151.285C430.712 155.756 439.732 162.501 459.09 159.44C460.004 159.291 462.519 159.468 463.511 159.298C464.106 157.414 464.545 151.568 462.264 146.24C455.171 147.069 422.478 143.696 425.617 147.458Z" fill="#F4B1B1"/>
<path fill-rule="evenodd" clip-rule="evenodd" d="M555.056 151.426C547.843 162.692 537.208 174.83 518.736 177.799C506.626 178.274 493.27 175.113 478.972 170.139C493.157 167.716 505.33 174.001 519.005 169.87C531.525 166.086 553.299 131.402 553.299 131.402C553.299 131.402 552.86 146.622 555.056 151.426Z" fill="#EF7800"/>
<path fill-rule="evenodd" clip-rule="evenodd" d="M646.92 175.213C643.257 198.298 639.318 235.624 642.811 264.25C595.663 272.909 557.246 268.076 528.925 259.418C531.922 224.295 539.978 115.169 565.288 87.0891C596.443 77.9699 631.361 81.8954 648.465 97.342C651.03 99.5881 653.616 102.727 656.181 106.504V191.488C652.596 186.11 649.351 180.3 646.92 175.213Z" fill="#F79F2D"/>
<path d="M584.036 83.1708C594.792 81.2576 607.737 79.1745 624.544 85.3531C620.605 106.511 607.376 109.125 597.272 108.58C583.597 107.836 578.375 95.4855 584.036 83.1708Z" fill="#EF7800"/>
<path fill-rule="evenodd" clip-rule="evenodd" d="M634.159 224.642C634.159 224.642 592.631 227.249 585.064 225.945C577.503 224.642 574.889 222.559 574.889 222.559C567.711 224.132 561.972 224.139 557.593 223.303C553.894 222.594 545.186 217.592 551.237 214.991L568.235 207.693L606.313 205.865L629.263 207.041L637.086 214.346L634.159 224.642Z" fill="#EF7800"/>
<path fill-rule="evenodd" clip-rule="evenodd" d="M630.354 139.31C630.354 139.31 627.272 167.546 624.792 176.41C621.384 188.604 587.295 192.317 580.557 205.688L639.608 211.597C639.608 211.597 651.866 190.34 650.69 184.736C649.528 179.131 630.354 139.31 630.354 139.31Z" fill="#EF7800"/>
<path fill-rule="evenodd" clip-rule="evenodd" d="M637.872 265.115C594.665 272.285 559.024 268.119 532.049 260.346C538.129 261.14 547.014 262.358 560.47 263.202C592.822 265.228 611.365 259.439 626.755 234.108C632.912 223.969 635.683 174.639 639.112 155.805C641.443 163.316 643.534 168.34 646.913 175.213C643.505 198.687 639.644 238.352 642.804 264.25C641.16 264.555 639.509 264.845 637.872 265.115Z" fill="#EF7800"/>
<path fill-rule="evenodd" clip-rule="evenodd" d="M577.489 60.674C580.444 67.1502 584.731 72.2235 589.634 74.7956L589.117 84.0281C578.056 102.72 615.149 111.053 616.453 84.6304L614.554 82.3488L614.61 69.2617C615.397 69.2476 621.207 66.222 622.922 65.7686C624.637 65.308 627.244 62.1407 627.542 58.6971C627.839 55.2535 622.468 56.1747 622.468 56.1747C629.249 47.5869 636.831 40.6501 627.655 32.3458C618.479 24.0415 596.897 18.5856 596.897 18.5856L583.972 13.5548C585.468 18.1392 583.767 32.0624 580.047 41.3516C576.71 49.6772 573.521 51.98 577.489 60.674Z" fill="#F4B1B1"/>
<path fill-rule="evenodd" clip-rule="evenodd" d="M608.375 70.8418C603.805 78.0479 598.498 85.5019 589.117 84.0281L589.634 74.7956C593.8 75.6246 597.917 75.4474 608.375 70.8418Z" fill="#D86C6F"/>
<path fill-rule="evenodd" clip-rule="evenodd" d="M631.956 497.395H622.234C620.909 497.395 619.825 498.479 619.825 499.804V509.454C619.825 510.779 620.909 511.863 622.234 511.863H631.956C633.281 511.863 634.365 510.779 634.365 509.454V499.804C634.372 498.479 633.288 497.395 631.956 497.395Z" fill="#D5155F"/>
<path d="M633.288 125.564C641.103 111.697 650.201 93.1615 657.669 109.054C671.933 139.409 670.629 200.097 658.683 211.994C646.51 223.848 588.032 226.137 582.484 222.282C575.945 217.74 570.97 209.634 581.563 204.193C588.167 200.196 596.138 199.027 607.411 197.15C624.884 194.245 631.226 191.099 632.912 175.631C634.783 158.476 626.025 138.445 633.288 125.564Z" fill="#F79F2D"/>
<path fill-rule="evenodd" clip-rule="evenodd" d="M571.041 203.477C569.015 201.649 560.881 194.485 558.316 194.16C557.005 193.989 557.062 194.457 557.062 195.166C557.062 195.789 557.614 197.079 558.252 197.773C559.591 199.226 560.505 202.684 561.362 203.371C552.371 210.166 537.293 206.843 537.874 212.759C538.639 213.68 544.733 217.124 546.065 218.428C550.302 222.566 552.839 224.146 574.719 219.243C575.753 219.009 578.637 218.945 579.757 218.683C580.274 216.748 580.295 210.882 577.248 205.787L571.041 203.477Z" fill="#F6C4C5"/>
<path fill-rule="evenodd" clip-rule="evenodd" d="M515.93 62.7146H429.266C425.851 62.7146 423.69 65.9811 423.052 69.8214L411.829 137.17H510.056L521.279 68.8366C521.825 65.5276 518.87 62.7146 515.93 62.7146Z" fill="#789BCE"/>
<path fill-rule="evenodd" clip-rule="evenodd" d="M513.471 62.7146H426.808C423.392 62.7146 421.231 65.9811 420.594 69.8214L409.37 137.17H507.597L518.821 68.8366C519.359 65.5276 516.412 62.7146 513.471 62.7146Z" fill="#B1CBEF"/>
<path fill-rule="evenodd" clip-rule="evenodd" d="M510.254 137.177H412.899V142.116C412.899 144.83 415.124 147.055 417.837 147.055H505.323C508.036 147.055 510.261 144.83 510.261 142.116V137.177H510.254Z" fill="#789BCE"/>
<path fill-rule="evenodd" clip-rule="evenodd" d="M465.892 137.177H359.204V142.116C359.204 144.83 361.429 147.055 364.143 147.055H460.953C463.667 147.055 465.892 144.83 465.892 142.116V137.177Z" fill="#A2BEE5"/>
<path fill-rule="evenodd" clip-rule="evenodd" d="M507.824 69.2476H430.669C427.63 69.2476 425.702 72.1031 425.135 75.4616L414.727 137.17H502.17L512.578 74.5972C513.067 71.7063 510.438 69.2476 507.824 69.2476Z" fill="white"/>
<path fill-rule="evenodd" clip-rule="evenodd" d="M425.858 140.238H394.405C393.534 140.238 392.825 140.947 392.825 141.818C392.825 142.69 393.534 143.398 394.405 143.398H425.858C426.73 143.398 427.438 142.69 427.438 141.818C427.438 140.947 426.73 140.238 425.858 140.238Z" fill="#789BCE"/>
<path fill-rule="evenodd" clip-rule="evenodd" d="M442.304 69.2476H437.875L467.465 137.177H471.893L442.304 69.2476ZM459.557 69.2476H450.07L479.659 137.177H489.139L459.557 69.2476Z" fill="#DBE7F9"/>
<path fill-rule="evenodd" clip-rule="evenodd" d="M583.42 34.7053C594.367 40.3171 606.972 33.6637 613.349 41.1674C616.509 44.8873 616.19 50.2511 612.655 58.5271C611.613 60.9645 610.224 62.7643 614.341 60.8583C616.233 59.9796 619.351 58.7609 620.413 59.6183C622.78 61.5314 621.59 65.556 619.698 66.8527C618.855 67.4337 617.26 68.291 617.26 68.291C631.984 65.4993 638.12 52.2138 637.915 41.5146C637.844 37.8868 637.44 34.6628 636.753 31.8002C637.057 30.8153 637.22 29.7667 637.22 28.6684C637.22 24.0273 634.259 20.1019 630.213 18.869C629.462 14.0154 625.451 10.3167 620.612 10.3167C619.159 10.3167 617.778 10.6497 616.538 11.252L616.049 11.1245C614.277 8.08474 610.968 6.04409 607.163 6.04409C604.499 6.04409 602.076 7.05025 600.255 8.6941C597.57 5.04502 593.517 2.72095 588.975 2.72095C580.897 2.72095 574.343 10.09 574.343 19.1737C574.343 24.8634 576.908 29.8729 580.812 32.8276C581.585 33.522 582.456 34.1526 583.42 34.7053Z" fill="#0D417C"/>
<path fill-rule="evenodd" clip-rule="evenodd" d="M256.336 499.294L258.15 480.184L238.977 480.644L239.161 502.525L256.336 499.294Z" fill="#F4AF8F"/>
<path fill-rule="evenodd" clip-rule="evenodd" d="M257.279 497.678C262.692 507.414 271.528 516.724 264.633 524.993H229.539C229.482 524.837 229.425 524.66 229.369 524.483C229.029 523.349 227.392 522.875 228.483 518.729C230.517 511.027 236.497 499.194 238.552 498.585C242.626 497.38 248.408 500.782 257.279 497.678Z" fill="#F66161"/>
<path fill-rule="evenodd" clip-rule="evenodd" d="M267.255 518.559V518.573L267.298 520.012C267.198 522.067 266.377 523.888 264.633 524.993H229.539C229.482 524.837 229.425 524.66 229.369 524.483C229.177 523.852 228.717 520.557 228.483 518.729L267.255 518.559Z" fill="#140505"/>
<path fill-rule="evenodd" clip-rule="evenodd" d="M315.118 234.448L294.577 317.874L284.09 367.544L260.814 488.516C260.814 488.516 255.89 490.762 248.018 490.309C240.146 489.848 236.171 488.693 236.171 488.693C236.001 452.975 235.051 407.464 240.365 364.674C245.049 326.993 231.983 301.01 233.407 261.232C233.854 248.775 247.508 213.51 247.33 213.964L315.118 234.448Z" fill="#6D2C5F"/>
<path fill-rule="evenodd" clip-rule="evenodd" d="M311.122 250.674L305.857 272.059C278.911 275.417 250.767 273.114 233.464 268.409C233.443 265.979 233.422 263.584 233.415 261.218C233.4 258.745 233.953 255.379 234.832 251.581C259.263 251.439 299.154 251.17 303.03 250.901C304.313 250.816 307.296 250.738 311.122 250.674Z" fill="#12143C"/>
<path fill-rule="evenodd" clip-rule="evenodd" d="M341.072 499.294L341.002 479.532L321.828 479.992L323.89 502.525L341.072 499.294Z" fill="#F4AF8F"/>
<path fill-rule="evenodd" clip-rule="evenodd" d="M342.341 495.063C342.341 495.063 372.44 507.435 380.886 511.573C387.447 514.783 391.16 521.549 385.775 524.993H320.156C320.099 524.837 320.042 524.667 319.986 524.483C319.008 521.238 316.457 498.075 323.288 498.592C327.525 498.911 332.867 499.945 342.341 495.063Z" fill="#F66161"/>
<path fill-rule="evenodd" clip-rule="evenodd" d="M388.39 518.559V518.573L388.432 520.012C388.333 522.067 387.511 523.888 385.768 524.993H320.149C320.092 524.837 320.035 524.667 319.979 524.483C319.787 523.852 319.327 520.557 319.093 518.729L388.39 518.559Z" fill="#140505"/>
<path fill-rule="evenodd" clip-rule="evenodd" d="M342.688 229.963L350.943 348.214L342.901 488.46C342.901 488.46 333.696 490.444 325.824 489.99C317.952 489.537 319.384 488.623 319.384 488.623L303.179 353.918C303.179 353.918 296.788 326.936 287.038 303.568C279.995 286.69 271.358 281.829 272.633 262.217C273.951 241.909 272.243 226.165 275.042 219.15C277.834 212.136 291.792 214.949 291.792 214.949L342.688 229.963Z" fill="#6D2C5F"/>
<path fill-rule="evenodd" clip-rule="evenodd" d="M343.864 250.398L344.672 264.449C328.311 269.401 305.687 274.517 273.172 273.575C272.463 270.145 272.335 267.021 272.647 262.21C272.895 258.412 273.037 254.777 273.122 251.326C288.221 251.198 300.94 251.05 303.037 250.908C307.699 250.582 334.773 250.433 343.864 250.398Z" fill="#12143C"/>
<path fill-rule="evenodd" clip-rule="evenodd" d="M307.317 383.402L303.193 353.911C303.193 353.911 298.701 340.569 293.585 322.614V322.607L297.489 294.662L307.82 361.741L307.317 383.402Z" fill="#12143C"/>
<path fill-rule="evenodd" clip-rule="evenodd" d="M343.276 476.393L343.396 481.339C334.093 482.253 326.505 482.706 318.498 481.268L317.874 476.138C325.236 477.938 333.385 477.406 343.276 476.393Z" fill="#984886"/>
<path fill-rule="evenodd" clip-rule="evenodd" d="M263.209 476.343L262.21 481.402C252.907 482.317 244.177 482.72 236.178 481.282L236.213 476.152C243.568 477.938 253.318 477.35 263.209 476.343Z" fill="#984886"/>
<path fill-rule="evenodd" clip-rule="evenodd" d="M307.586 125.543C317.57 148.146 320.035 172.683 339.755 195.314C352.92 210.414 368.231 229.346 389.623 232.379C394.731 233.102 406.501 227.334 395.426 218.598C387.603 209.145 357.667 172.159 352.771 165.626C344.743 154.919 331.004 93.9337 309.535 85.8562C306.998 84.1769 300.231 114.191 307.586 125.543Z" fill="#6E35A9"/>
<path fill-rule="evenodd" clip-rule="evenodd" d="M315.352 146.736C320.694 162.99 326.072 179.613 339.755 195.314C350.213 207.317 362.032 221.73 377.173 228.666C353.423 208.203 337.707 176.736 329.346 146.977L315.352 146.736Z" fill="#50188B"/>
<path fill-rule="evenodd" clip-rule="evenodd" d="M233.422 262.904C280.704 271.591 317.598 267.354 345.997 258.674C342.986 223.451 334.915 114.014 309.535 85.8562C278.294 76.7087 243.278 80.6482 226.123 96.1374C225.408 96.768 224.685 97.4624 223.969 98.2276L221.22 152.22C234.711 127.952 233.932 258.716 233.422 262.904Z" fill="#6E35A9"/>
<path fill-rule="evenodd" clip-rule="evenodd" d="M229 93.7708C227.47 83.1849 233.4 80.3223 242.697 78.8698C242.697 78.8698 244.036 73.1163 248.096 71.1536C264.456 63.239 295.491 66.4912 298.439 76.5174C299.091 78.7422 307.622 80.1806 307.855 83.7092C308.316 90.6956 283.573 100.566 277.125 101.884C277.125 101.884 263.918 101.097 260.127 99.6589C256.336 98.2205 245.219 91.8152 242.604 91.8152C239.99 91.8152 229 93.7708 229 93.7708Z" fill="#50188B"/>
<path fill-rule="evenodd" clip-rule="evenodd" d="M236.745 264.378C267.51 269.486 294.449 268.856 317.166 265.271H317.173L317.187 265.263C326.455 263.804 335.021 261.848 342.858 259.588L340.711 259.871L345.99 258.66L343.779 228.376C327.815 224.479 322.558 219.42 318.214 203.165C301.741 201.854 283.743 203.782 267.659 206.921C266.589 218.647 260.467 229.984 243.455 235.511C238.381 208.189 233.202 156.152 230.531 141.492C227.151 146.403 227.293 142.831 223.388 149.506C226.804 173.044 234.959 237.53 231.792 263.499C233.45 263.818 235.101 264.109 236.745 264.378Z" fill="#50188B"/>
<path fill-rule="evenodd" clip-rule="evenodd" d="M401.675 223.529C404.41 223.416 415.272 223.111 417.462 224.507C418.581 225.216 418.234 225.542 417.781 226.087C417.384 226.569 416.13 227.207 415.187 227.334C413.225 227.589 410.298 229.673 409.2 229.658C410.929 237.042 421.068 236.425 424.895 238.359C426.772 239.309 427.041 244.439 425.646 245.821C424.462 246.04 417.129 255.23 415.265 255.379C409.342 255.847 402.448 251.135 388.723 233.329C388.071 232.485 385.889 230.587 385.194 229.665C386.03 227.837 389.779 223.303 395.404 221.333L401.675 223.529Z" fill="#F4B1B1"/>
<path d="M290.673 81.9237C279.889 80.0106 266.908 77.9133 250.051 84.1061C253.261 101.352 262.628 106.312 271.464 107.276C266.426 117.848 269.423 144.412 269.437 144.504L271.889 144.242C271.882 144.142 268.644 115.311 273.753 107.439C275 107.489 276.218 107.467 277.402 107.404C278.493 107.347 279.527 107.212 280.512 107.007C282.503 108.686 284.161 111.584 285.536 114.992C289.475 124.784 290.843 138.566 291.006 141.308L293.465 141.166C293.294 138.353 291.884 124.196 287.817 114.078C286.563 110.968 285.054 108.218 283.226 106.234C292.494 102.762 295.463 92.3325 290.673 81.9237Z" fill="#50188B"/>
<path fill-rule="evenodd" clip-rule="evenodd" d="M297.298 59.3561C294.336 65.8536 290.035 70.934 285.118 73.5202L285.635 82.774C296.724 101.523 259.532 109.876 258.221 83.3763L260.12 81.0877L260.063 67.9581C259.277 67.9439 253.445 64.9112 251.731 64.4578C250.016 63.9972 247.394 60.8158 247.097 57.3651C246.799 53.9144 252.184 54.8355 252.184 54.8355C245.382 46.2265 237.786 39.2685 246.983 30.9358C256.18 22.6032 277.834 17.1331 277.834 17.1331L290.8 12.0881C289.298 16.6796 291.006 30.6453 294.733 39.9629C298.077 48.331 301.273 50.6409 297.298 59.3561Z" fill="#F4B1B1"/>
<path fill-rule="evenodd" clip-rule="evenodd" d="M266.327 69.5593C270.911 76.7866 276.233 84.2619 285.635 82.781L285.118 73.5273C280.937 74.3563 276.814 74.1791 266.327 69.5593Z" fill="#D86C6F"/>
<path fill-rule="evenodd" clip-rule="evenodd" d="M289.249 32.4733C278.67 38.404 266.008 32.3175 260.007 39.9486C257.031 43.7323 257.548 48.9969 261.332 57.0249C262.451 59.3915 263.882 61.1062 259.759 59.3773C257.86 58.5838 254.749 57.4926 253.736 58.3783C251.476 60.3481 252.801 64.2664 254.707 65.478C255.557 66.0165 257.165 66.8101 257.165 66.8101C229.078 65.0812 216.82 0.106348 278.642 5.00958C280.385 5.14421 279.187 0.0850909 281.008 0.0213205C294.882 -0.510099 306.792 21.434 289.249 32.4733Z" fill="#0D417C"/>
<path fill-rule="evenodd" clip-rule="evenodd" d="M350.184 498.358C359.311 502.156 374.608 508.576 380.886 511.58C377.598 514.11 374.467 513.606 374.467 513.606C374.467 513.606 356.654 508.051 351.58 504.452C348.597 502.326 349.192 499.953 350.184 498.358Z" fill="#C03C57"/>
<path fill-rule="evenodd" clip-rule="evenodd" d="M242.675 497.317H252.425C253.757 497.317 254.841 498.408 254.841 499.733V509.412C254.841 510.744 253.75 511.828 252.425 511.828H242.675C241.343 511.828 240.259 510.737 240.259 509.412V499.733C240.252 498.408 241.343 497.317 242.675 497.317Z" fill="#C03C57"/>
<path d="M242.023 123.608C241.272 107.666 235.462 88.1236 221.936 99.411C197.158 120.087 168.567 166.533 171.558 188.852C175.022 208.097 208.048 257.08 219.463 248.577C225.861 243.808 224.876 238.685 223.962 236.553C215.786 223.515 206.241 193.798 205.398 189.802C202.5 168.29 242.952 143.413 242.023 123.608Z" fill="#6E35A9"/>
<path fill-rule="evenodd" clip-rule="evenodd" d="M226.442 240.06C227.576 239.663 229.716 238.707 232.288 237.686L232.564 243.163C238.247 252.935 254.416 261.522 248.627 263.52C248.252 263.712 239.572 256.073 237.482 256.052C236.596 256.045 246.14 263.159 243.908 263.974C243.065 264.286 235.186 258.32 233.705 258.249C232.748 258.199 239.94 263.223 238.162 264.314C237.637 264.633 232.309 260.856 231.246 260.566C230.722 260.424 234.3 263.839 234.279 263.96C233.478 268.417 219.335 251.68 213.908 247.705C212.739 245.062 215.056 236.255 222.793 236.836L226.442 240.06Z" fill="#F4B1B1"/>
<path fill-rule="evenodd" clip-rule="evenodd" d="M428.799 230.218L416.682 219.165C415.57 218.151 413.792 218.279 412.722 219.448L388.645 245.842C387.582 247.011 387.617 248.796 388.723 249.81L400.839 260.863C401.952 261.877 403.73 261.749 404.8 260.58L428.877 234.186C429.947 233.01 429.904 231.231 428.799 230.218Z" fill="#022FA0"/>
<path fill-rule="evenodd" clip-rule="evenodd" d="M426.375 231.997C426.914 232.485 426.914 233.371 426.383 233.959L404.417 258.043C403.886 258.631 403 258.709 402.462 258.22L391.217 247.96C390.678 247.471 390.678 246.586 391.21 245.998L413.175 221.914C413.706 221.326 414.592 221.248 415.131 221.737L415.882 222.417L416.86 223.31L417.511 223.905L416.909 224.571C416.576 224.932 416.604 225.506 416.966 225.839L422.124 230.551C422.485 230.884 423.059 230.856 423.392 230.494L423.995 229.835L424.654 230.431L424.824 230.587L426.375 231.997Z" fill="#D8E7FF"/>
<path fill-rule="evenodd" clip-rule="evenodd" d="M293.238 140.692L291.07 140.94L292.487 151.27L294.655 151.022L293.238 140.692Z" fill="white"/>
<path d="M271.698 144.096L269.457 144.248L270.165 154.633L272.406 154.48L271.698 144.096Z" fill="white"/>
<path fill-rule="evenodd" clip-rule="evenodd" d="M67.241 462.063C54.2257 413.463 11.3303 361.518 2.36288 351.238C61.2563 351.504 78.4987 427.495 75.9808 469.263L67.241 462.063Z" fill="#3DB390"/>
<path fill-rule="evenodd" clip-rule="evenodd" d="M81.5685 463.448C92.0805 424.198 126.725 382.247 133.964 373.942C84.8175 359.726 72.4752 435.528 74.5089 469.263L81.5685 463.448Z" fill="#3DB390"/>
<path fill-rule="evenodd" clip-rule="evenodd" d="M78.0387 466.353C81.1569 424.75 98.4865 353.669 105.73 345.365C56.5789 331.148 69.5797 431.926 71.6133 465.66L78.0387 466.353Z" fill="#84CDB3"/>
<path fill-rule="evenodd" clip-rule="evenodd" d="M62.767 475.291C54.5985 442.578 21.5905 405.222 0 392.73C47.0886 372.713 68.4418 446.486 70.4706 480.22L62.767 475.291Z" fill="#84CDB3"/>
<path fill-rule="evenodd" clip-rule="evenodd" d="M37.4675 469.263H103.212V497.095C103.212 512.405 90.686 524.927 75.3804 524.927H65.3042C49.9938 524.927 37.4723 512.4 37.4723 497.095V469.263H37.4675Z" fill="#B5D2F1"/>
<path d="M103.212 469.263H37.4675V473.979H103.212V469.263Z" fill="#8ABAEA"/>
<path fill-rule="evenodd" clip-rule="evenodd" d="M38.4262 462.063H102.254C104.539 462.063 106.413 463.932 106.413 466.222C106.413 468.512 104.544 470.381 102.254 470.381H38.4262C36.1408 470.381 34.2669 468.512 34.2669 466.222C34.2669 463.932 36.1408 462.063 38.4262 462.063Z" fill="#B5D2F1"/>
<path d="M701 524H1V528.43H701V524Z" fill="#424243"/>
</svg>
