<svg width="814" height="646" viewBox="0 0 814 646" fill="none" xmlns="http://www.w3.org/2000/svg">
<path d="M521.37 48.7369C467.236 20.228 423.84 37.138 386.765 59.4163C282.937 121.806 248.229 93.7134 148.26 102.261C29.2233 112.381 18.6158 209.229 53.5133 279.89C67.969 309.177 85.355 339.155 77.604 373.068C71.5997 399.506 47.9676 423.944 33.7022 447.063C-18.309 531.413 22.8121 644.845 179.085 648.1C271.562 650.045 321.393 609.503 392.363 556.679C459.273 506.829 528.256 499.345 609.714 498.042C804.041 495.029 928.813 285.366 615.591 162.732C566.554 143.568 564.781 71.5824 521.37 48.7369Z" fill="url(#paint0_linear)" fill-opacity="0.3"/>
<path fill-rule="evenodd" clip-rule="evenodd" d="M666.33 499.364L664.531 480.311L683.647 480.772L683.463 502.588L666.33 499.364Z" fill="#F4AF8F"/>
<path fill-rule="evenodd" clip-rule="evenodd" d="M665.395 497.756C661.689 510.985 651.188 516.745 658.061 524.993H693.057C693.114 524.837 693.17 524.667 693.227 524.483C693.567 523.349 695.197 522.881 694.106 518.743C692.079 511.063 686.113 499.265 684.065 498.663C680.005 497.458 674.238 500.852 665.395 497.756Z" fill="#A1003F"/>
<path fill-rule="evenodd" clip-rule="evenodd" d="M655.822 518.573V518.588L655.78 520.026C655.879 522.074 656.701 523.888 658.437 525H693.064C695.742 522.47 694.609 520.182 694.113 518.751L655.822 518.573Z" fill="#140505"/>
<path fill-rule="evenodd" clip-rule="evenodd" d="M607.719 235.263L628.203 318.455L638.654 367.983L661.866 488.616C661.866 488.616 666.777 490.855 674.627 490.401C682.478 489.948 686.439 488.786 686.439 488.786C686.609 453.166 686.446 407.932 682.592 362.478C679.361 324.386 691.526 303.986 689.195 261.969C688.508 249.555 675.13 214.382 675.308 214.835L607.719 235.263Z" fill="#12496F"/>
<path fill-rule="evenodd" clip-rule="evenodd" d="M611.701 251.447L616.951 272.774C643.819 276.126 671.885 273.83 689.139 269.139C689.16 266.716 689.181 264.328 689.188 261.969C689.202 259.51 688.657 256.151 687.778 252.353C663.418 252.212 623.633 251.943 619.771 251.673C618.488 251.588 615.52 251.51 611.701 251.447Z" fill="#12143C"/>
<path fill-rule="evenodd" clip-rule="evenodd" d="M581.835 499.364L581.906 479.659L601.023 480.12L598.968 502.588L581.835 499.364Z" fill="#F4AF8F"/>
<path fill-rule="evenodd" clip-rule="evenodd" d="M580.567 495.148C571.079 506.393 550.666 508.802 542.127 511.615C535.212 513.897 531.882 521.564 537.253 525H602.688C602.744 524.844 602.801 524.674 602.858 524.49C603.829 521.259 606.372 498.153 599.57 498.67C595.347 498.982 590.019 500.016 580.567 495.148Z" fill="#A1003F"/>
<path fill-rule="evenodd" clip-rule="evenodd" d="M577.102 498.528C568.33 505.656 554.733 508.306 546.173 510.475C546.634 512.267 546.896 513.862 552.628 513.989C561.301 514.187 572.277 509.277 576.294 506.429C579.242 504.338 578.236 500.859 577.102 498.528Z" fill="#D5155F"/>
<path fill-rule="evenodd" clip-rule="evenodd" d="M534.652 518.573V518.588L534.61 520.026C534.709 522.074 535.531 523.888 537.267 525H602.702C602.759 524.844 602.815 524.674 602.872 524.49C603.063 523.859 603.524 520.572 603.751 518.751L534.652 518.573Z" fill="#140505"/>
<path fill-rule="evenodd" clip-rule="evenodd" d="M580.227 230.792L572.518 347.669L580.014 488.559C580.014 488.559 589.19 490.543 597.041 490.082C604.891 489.629 603.46 488.722 603.46 488.722L621.833 357.397C621.833 357.397 625.985 327.496 635.714 304.192C642.735 287.363 651.344 282.51 650.076 262.954C648.758 242.703 650.466 227.008 647.674 220.008C644.889 213.007 630.973 215.82 630.973 215.82L580.227 230.792Z" fill="#12496F"/>
<path fill-rule="evenodd" clip-rule="evenodd" d="M579.05 251.17L578.243 265.178C594.553 270.117 617.121 275.219 649.544 274.276C650.253 270.861 650.381 267.736 650.069 262.946C649.821 259.163 649.679 255.535 649.601 252.091C634.551 251.964 621.868 251.822 619.771 251.673C615.116 251.354 588.113 251.206 579.05 251.17Z" fill="#12143C"/>
<path fill-rule="evenodd" clip-rule="evenodd" d="M617.716 386.803L621.833 357.397C621.833 357.397 624.1 341.1 629.195 323.188L625.305 295.32L617.22 365.213L617.716 386.803Z" fill="#12143C"/>
<path fill-rule="evenodd" clip-rule="evenodd" d="M615.229 126.669C604.906 150.045 597.012 172.931 566.736 177.799C545.288 178.642 506.565 165.13 509.378 157.697C512.439 149.62 499.224 146.955 511.56 147.047C527.942 146.807 559.941 147.118 563.639 146.814C567.132 146.523 586.143 97.2287 613.288 87.0892C615.817 85.417 622.563 115.347 615.229 126.669Z" fill="#F79F2D"/>
<path fill-rule="evenodd" clip-rule="evenodd" d="M473.617 147.458C474.22 148.436 474.269 149.882 475.332 151.285C478.712 155.756 487.732 162.501 507.09 159.44C508.004 159.291 510.519 159.468 511.511 159.298C512.106 157.414 512.545 151.568 510.264 146.24C503.171 147.069 470.478 143.696 473.617 147.458Z" fill="#F4B1B1"/>
<path fill-rule="evenodd" clip-rule="evenodd" d="M603.056 151.426C595.843 162.692 585.208 174.83 566.736 177.799C554.626 178.274 541.27 175.113 526.972 170.139C541.157 167.716 553.33 174.001 567.005 169.87C579.525 166.086 601.299 131.402 601.299 131.402C601.299 131.402 600.86 146.622 603.056 151.426Z" fill="#EF7800"/>
<path fill-rule="evenodd" clip-rule="evenodd" d="M694.92 175.213C691.257 198.298 687.318 235.624 690.811 264.25C643.663 272.909 605.246 268.076 576.925 259.418C579.922 224.295 587.978 115.169 613.288 87.0891C644.443 77.9699 679.361 81.8954 696.465 97.342C699.03 99.5881 701.616 102.727 704.181 106.504V191.488C700.596 186.11 697.351 180.3 694.92 175.213Z" fill="#F79F2D"/>
<path d="M632.036 83.1708C642.792 81.2576 655.737 79.1745 672.544 85.3531C668.605 106.511 655.376 109.125 645.272 108.58C631.597 107.836 626.375 95.4855 632.036 83.1708Z" fill="#EF7800"/>
<path fill-rule="evenodd" clip-rule="evenodd" d="M682.159 224.642C682.159 224.642 640.631 227.249 633.064 225.945C625.503 224.642 622.889 222.559 622.889 222.559C615.711 224.132 609.972 224.139 605.593 223.303C601.894 222.594 593.186 217.592 599.237 214.991L616.235 207.693L654.313 205.865L677.263 207.041L685.086 214.346L682.159 224.642Z" fill="#EF7800"/>
<path fill-rule="evenodd" clip-rule="evenodd" d="M678.354 139.31C678.354 139.31 675.272 167.546 672.792 176.41C669.384 188.604 635.295 192.317 628.557 205.688L687.608 211.597C687.608 211.597 699.866 190.34 698.69 184.736C697.528 179.131 678.354 139.31 678.354 139.31Z" fill="#EF7800"/>
<path fill-rule="evenodd" clip-rule="evenodd" d="M685.872 265.115C642.665 272.285 607.024 268.119 580.049 260.346C586.129 261.14 595.014 262.358 608.47 263.202C640.822 265.228 659.365 259.439 674.755 234.108C680.912 223.969 683.683 174.639 687.112 155.805C689.443 163.316 691.534 168.34 694.913 175.213C691.505 198.687 687.644 238.352 690.804 264.25C689.16 264.555 687.509 264.845 685.872 265.115Z" fill="#EF7800"/>
<path fill-rule="evenodd" clip-rule="evenodd" d="M625.489 60.674C628.444 67.1502 632.731 72.2235 637.634 74.7956L637.117 84.0281C626.056 102.72 663.149 111.053 664.453 84.6304L662.554 82.3488L662.61 69.2617C663.397 69.2476 669.207 66.222 670.922 65.7686C672.637 65.308 675.244 62.1407 675.542 58.6971C675.839 55.2535 670.468 56.1747 670.468 56.1747C677.249 47.5869 684.831 40.6501 675.655 32.3458C666.479 24.0415 644.897 18.5856 644.897 18.5856L631.972 13.5548C633.468 18.1392 631.767 32.0624 628.047 41.3516C624.71 49.6772 621.521 51.98 625.489 60.674Z" fill="#F4B1B1"/>
<path fill-rule="evenodd" clip-rule="evenodd" d="M656.375 70.8418C651.805 78.0479 646.498 85.5019 637.117 84.0281L637.634 74.7956C641.8 75.6246 645.917 75.4474 656.375 70.8418Z" fill="#D86C6F"/>
<path fill-rule="evenodd" clip-rule="evenodd" d="M679.956 497.395H670.234C668.909 497.395 667.825 498.479 667.825 499.804V509.454C667.825 510.779 668.909 511.863 670.234 511.863H679.956C681.281 511.863 682.365 510.779 682.365 509.454V499.804C682.372 498.479 681.288 497.395 679.956 497.395Z" fill="#D5155F"/>
<path d="M681.288 125.564C689.103 111.697 698.201 93.1615 705.669 109.054C719.933 139.409 718.629 200.097 706.683 211.994C694.51 223.848 636.032 226.137 630.484 222.282C623.945 217.74 618.97 209.634 629.563 204.193C636.167 200.196 644.138 199.027 655.411 197.15C672.884 194.245 679.226 191.099 680.912 175.631C682.783 158.476 674.025 138.445 681.288 125.564Z" fill="#F79F2D"/>
<path fill-rule="evenodd" clip-rule="evenodd" d="M619.041 203.477C617.015 201.649 608.881 194.485 606.316 194.16C605.005 193.989 605.062 194.457 605.062 195.166C605.062 195.789 605.614 197.079 606.252 197.773C607.591 199.226 608.505 202.684 609.362 203.371C600.371 210.166 585.293 206.843 585.874 212.759C586.639 213.68 592.733 217.124 594.065 218.428C598.302 222.566 600.839 224.146 622.719 219.243C623.753 219.009 626.637 218.945 627.757 218.683C628.274 216.748 628.295 210.882 625.248 205.787L619.041 203.477Z" fill="#F6C4C5"/>
<path fill-rule="evenodd" clip-rule="evenodd" d="M563.93 62.7146H477.266C473.851 62.7146 471.69 65.9811 471.052 69.8214L459.829 137.17H558.056L569.279 68.8366C569.825 65.5276 566.87 62.7146 563.93 62.7146Z" fill="#789BCE"/>
<path fill-rule="evenodd" clip-rule="evenodd" d="M561.471 62.7146H474.808C471.392 62.7146 469.231 65.9811 468.594 69.8214L457.37 137.17H555.597L566.821 68.8366C567.359 65.5276 564.412 62.7146 561.471 62.7146Z" fill="#B1CBEF"/>
<path fill-rule="evenodd" clip-rule="evenodd" d="M558.254 137.177H460.899V142.116C460.899 144.83 463.124 147.055 465.837 147.055H553.323C556.036 147.055 558.261 144.83 558.261 142.116V137.177H558.254Z" fill="#789BCE"/>
<path fill-rule="evenodd" clip-rule="evenodd" d="M513.892 137.177H407.204V142.116C407.204 144.83 409.429 147.055 412.143 147.055H508.953C511.667 147.055 513.892 144.83 513.892 142.116V137.177Z" fill="#A2BEE5"/>
<path fill-rule="evenodd" clip-rule="evenodd" d="M555.824 69.2476H478.669C475.63 69.2476 473.702 72.1031 473.135 75.4616L462.727 137.17H550.17L560.578 74.5972C561.067 71.7063 558.438 69.2476 555.824 69.2476Z" fill="white"/>
<path fill-rule="evenodd" clip-rule="evenodd" d="M473.858 140.238H442.405C441.534 140.238 440.825 140.947 440.825 141.818C440.825 142.69 441.534 143.398 442.405 143.398H473.858C474.73 143.398 475.438 142.69 475.438 141.818C475.438 140.947 474.73 140.238 473.858 140.238Z" fill="#789BCE"/>
<path fill-rule="evenodd" clip-rule="evenodd" d="M490.304 69.2476H485.875L515.465 137.177H519.893L490.304 69.2476ZM507.557 69.2476H498.07L527.659 137.177H537.139L507.557 69.2476Z" fill="#DBE7F9"/>
<path fill-rule="evenodd" clip-rule="evenodd" d="M631.42 34.7053C642.367 40.3171 654.972 33.6637 661.349 41.1674C664.509 44.8873 664.19 50.2511 660.655 58.5271C659.613 60.9645 658.224 62.7643 662.341 60.8583C664.233 59.9796 667.351 58.7609 668.413 59.6183C670.78 61.5314 669.59 65.556 667.698 66.8527C666.855 67.4337 665.26 68.291 665.26 68.291C679.984 65.4993 686.12 52.2138 685.915 41.5146C685.844 37.8868 685.44 34.6628 684.753 31.8002C685.057 30.8153 685.22 29.7667 685.22 28.6684C685.22 24.0273 682.259 20.1019 678.213 18.869C677.462 14.0154 673.451 10.3167 668.612 10.3167C667.159 10.3167 665.778 10.6497 664.538 11.252L664.049 11.1245C662.277 8.08474 658.968 6.04409 655.163 6.04409C652.499 6.04409 650.076 7.05025 648.255 8.6941C645.57 5.04502 641.517 2.72095 636.975 2.72095C628.897 2.72095 622.343 10.09 622.343 19.1737C622.343 24.8634 624.908 29.8729 628.812 32.8276C629.585 33.522 630.456 34.1526 631.42 34.7053Z" fill="#0D417C"/>
<path fill-rule="evenodd" clip-rule="evenodd" d="M304.336 499.294L306.15 480.184L286.977 480.644L287.161 502.525L304.336 499.294Z" fill="#F4AF8F"/>
<path fill-rule="evenodd" clip-rule="evenodd" d="M305.279 497.678C310.692 507.414 319.528 516.724 312.633 524.993H277.539C277.482 524.837 277.425 524.66 277.369 524.483C277.029 523.349 275.392 522.875 276.483 518.729C278.517 511.027 284.497 499.194 286.552 498.585C290.626 497.38 296.408 500.782 305.279 497.678Z" fill="#F66161"/>
<path fill-rule="evenodd" clip-rule="evenodd" d="M315.255 518.559V518.573L315.298 520.012C315.198 522.067 314.377 523.888 312.633 524.993H277.539C277.482 524.837 277.425 524.66 277.369 524.483C277.177 523.852 276.717 520.557 276.483 518.729L315.255 518.559Z" fill="#140505"/>
<path fill-rule="evenodd" clip-rule="evenodd" d="M363.118 234.448L342.577 317.874L332.09 367.544L308.814 488.516C308.814 488.516 303.89 490.762 296.018 490.309C288.146 489.848 284.171 488.693 284.171 488.693C284.001 452.975 283.051 407.464 288.365 364.674C293.049 326.993 279.983 301.01 281.407 261.232C281.854 248.775 295.508 213.51 295.33 213.964L363.118 234.448Z" fill="#6D2C5F"/>
<path fill-rule="evenodd" clip-rule="evenodd" d="M359.122 250.674L353.857 272.059C326.911 275.417 298.767 273.114 281.464 268.409C281.443 265.979 281.422 263.584 281.415 261.218C281.4 258.745 281.953 255.379 282.832 251.581C307.263 251.439 347.154 251.17 351.03 250.901C352.313 250.816 355.296 250.738 359.122 250.674Z" fill="#12143C"/>
<path fill-rule="evenodd" clip-rule="evenodd" d="M389.072 499.294L389.002 479.532L369.828 479.992L371.89 502.525L389.072 499.294Z" fill="#F4AF8F"/>
<path fill-rule="evenodd" clip-rule="evenodd" d="M390.341 495.063C390.341 495.063 420.44 507.435 428.886 511.573C435.447 514.783 439.16 521.549 433.775 524.993H368.156C368.099 524.837 368.042 524.667 367.986 524.483C367.008 521.238 364.457 498.075 371.288 498.592C375.525 498.911 380.867 499.945 390.341 495.063Z" fill="#F66161"/>
<path fill-rule="evenodd" clip-rule="evenodd" d="M436.39 518.559V518.573L436.432 520.012C436.333 522.067 435.511 523.888 433.768 524.993H368.149C368.092 524.837 368.035 524.667 367.979 524.483C367.787 523.852 367.327 520.557 367.093 518.729L436.39 518.559Z" fill="#140505"/>
<path fill-rule="evenodd" clip-rule="evenodd" d="M390.688 229.963L398.943 348.214L390.901 488.46C390.901 488.46 381.696 490.444 373.824 489.99C365.952 489.537 367.384 488.623 367.384 488.623L351.179 353.918C351.179 353.918 344.788 326.936 335.038 303.568C327.995 286.69 319.358 281.829 320.633 262.217C321.951 241.909 320.243 226.165 323.042 219.15C325.834 212.136 339.792 214.949 339.792 214.949L390.688 229.963Z" fill="#6D2C5F"/>
<path fill-rule="evenodd" clip-rule="evenodd" d="M391.864 250.398L392.672 264.449C376.311 269.401 353.687 274.517 321.172 273.575C320.463 270.145 320.335 267.021 320.647 262.21C320.895 258.412 321.037 254.777 321.122 251.326C336.221 251.198 348.94 251.05 351.037 250.908C355.699 250.582 382.773 250.433 391.864 250.398Z" fill="#12143C"/>
<path fill-rule="evenodd" clip-rule="evenodd" d="M355.317 383.402L351.193 353.911C351.193 353.911 346.701 340.569 341.585 322.614V322.607L345.489 294.662L355.82 361.741L355.317 383.402Z" fill="#12143C"/>
<path fill-rule="evenodd" clip-rule="evenodd" d="M391.276 476.393L391.396 481.339C382.093 482.253 374.505 482.706 366.498 481.268L365.874 476.138C373.236 477.938 381.385 477.406 391.276 476.393Z" fill="#984886"/>
<path fill-rule="evenodd" clip-rule="evenodd" d="M311.209 476.343L310.21 481.402C300.907 482.317 292.177 482.72 284.178 481.282L284.213 476.152C291.568 477.938 301.318 477.35 311.209 476.343Z" fill="#984886"/>
<path fill-rule="evenodd" clip-rule="evenodd" d="M355.586 125.543C365.57 148.146 368.035 172.683 387.755 195.314C400.92 210.414 416.231 229.346 437.623 232.379C442.731 233.102 454.501 227.334 443.426 218.598C435.603 209.145 405.667 172.159 400.771 165.626C392.743 154.919 379.004 93.9337 357.535 85.8562C354.998 84.1769 348.231 114.191 355.586 125.543Z" fill="#6E35A9"/>
<path fill-rule="evenodd" clip-rule="evenodd" d="M363.352 146.736C368.694 162.99 374.072 179.613 387.755 195.314C398.213 207.317 410.032 221.73 425.173 228.666C401.423 208.203 385.707 176.736 377.346 146.977L363.352 146.736Z" fill="#50188B"/>
<path fill-rule="evenodd" clip-rule="evenodd" d="M281.422 262.904C328.704 271.591 365.598 267.354 393.997 258.674C390.986 223.451 382.915 114.014 357.535 85.8562C326.294 76.7087 291.278 80.6482 274.123 96.1374C273.408 96.768 272.685 97.4624 271.969 98.2276L269.22 152.22C282.711 127.952 281.932 258.716 281.422 262.904Z" fill="#6E35A9"/>
<path fill-rule="evenodd" clip-rule="evenodd" d="M277 93.7708C275.47 83.1849 281.4 80.3223 290.697 78.8698C290.697 78.8698 292.036 73.1163 296.096 71.1536C312.456 63.239 343.491 66.4912 346.439 76.5174C347.091 78.7422 355.622 80.1806 355.855 83.7092C356.316 90.6956 331.573 100.566 325.125 101.884C325.125 101.884 311.918 101.097 308.127 99.6589C304.336 98.2205 293.219 91.8152 290.604 91.8152C287.99 91.8152 277 93.7708 277 93.7708Z" fill="#50188B"/>
<path fill-rule="evenodd" clip-rule="evenodd" d="M284.745 264.378C315.51 269.486 342.449 268.856 365.166 265.271H365.173L365.187 265.263C374.455 263.804 383.021 261.848 390.858 259.588L388.711 259.871L393.99 258.66L391.779 228.376C375.815 224.479 370.558 219.42 366.214 203.165C349.741 201.854 331.743 203.782 315.659 206.921C314.589 218.647 308.467 229.984 291.455 235.511C286.381 208.189 281.202 156.152 278.531 141.492C275.151 146.403 275.293 142.831 271.388 149.506C274.804 173.044 282.959 237.53 279.792 263.499C281.45 263.818 283.101 264.109 284.745 264.378Z" fill="#50188B"/>
<path fill-rule="evenodd" clip-rule="evenodd" d="M449.675 223.529C452.41 223.416 463.272 223.111 465.462 224.507C466.581 225.216 466.234 225.542 465.781 226.087C465.384 226.569 464.13 227.207 463.187 227.334C461.225 227.589 458.298 229.673 457.2 229.658C458.929 237.042 469.068 236.425 472.895 238.359C474.772 239.309 475.041 244.439 473.646 245.821C472.462 246.04 465.129 255.23 463.265 255.379C457.342 255.847 450.448 251.135 436.723 233.329C436.071 232.485 433.889 230.587 433.194 229.665C434.03 227.837 437.779 223.303 443.404 221.333L449.675 223.529Z" fill="#F4B1B1"/>
<path d="M338.673 81.9237C327.889 80.0106 314.908 77.9133 298.051 84.1061C301.261 101.352 310.628 106.312 319.464 107.276C314.426 117.848 317.423 144.412 317.437 144.504L319.889 144.242C319.882 144.142 316.644 115.311 321.753 107.439C323 107.489 324.218 107.467 325.402 107.404C326.493 107.347 327.527 107.212 328.512 107.007C330.503 108.686 332.161 111.584 333.536 114.992C337.475 124.784 338.843 138.566 339.006 141.308L341.465 141.166C341.294 138.353 339.884 124.196 335.817 114.078C334.563 110.968 333.054 108.218 331.226 106.234C340.494 102.762 343.463 92.3325 338.673 81.9237Z" fill="#50188B"/>
<path fill-rule="evenodd" clip-rule="evenodd" d="M345.298 59.3561C342.336 65.8536 338.035 70.934 333.118 73.5202L333.635 82.774C344.724 101.523 307.532 109.876 306.221 83.3763L308.12 81.0877L308.063 67.9581C307.277 67.9439 301.445 64.9112 299.731 64.4578C298.016 63.9972 295.394 60.8158 295.097 57.3651C294.799 53.9144 300.184 54.8355 300.184 54.8355C293.382 46.2265 285.786 39.2685 294.983 30.9358C304.18 22.6032 325.834 17.1331 325.834 17.1331L338.8 12.0881C337.298 16.6796 339.006 30.6453 342.733 39.9629C346.077 48.331 349.273 50.6409 345.298 59.3561Z" fill="#F4B1B1"/>
<path fill-rule="evenodd" clip-rule="evenodd" d="M314.327 69.5593C318.911 76.7866 324.233 84.2619 333.635 82.781L333.118 73.5273C328.937 74.3563 324.814 74.1791 314.327 69.5593Z" fill="#D86C6F"/>
<path fill-rule="evenodd" clip-rule="evenodd" d="M337.249 32.4733C326.67 38.404 314.008 32.3175 308.007 39.9486C305.031 43.7323 305.548 48.9969 309.332 57.0249C310.451 59.3915 311.882 61.1062 307.759 59.3773C305.86 58.5838 302.749 57.4926 301.736 58.3783C299.476 60.3481 300.801 64.2664 302.707 65.478C303.557 66.0165 305.165 66.8101 305.165 66.8101C277.078 65.0812 264.82 0.106348 326.642 5.00958C328.385 5.14421 327.187 0.0850909 329.008 0.0213205C342.882 -0.510099 354.792 21.434 337.249 32.4733Z" fill="#0D417C"/>
<path fill-rule="evenodd" clip-rule="evenodd" d="M398.184 498.358C407.311 502.156 422.608 508.576 428.886 511.58C425.598 514.11 422.467 513.606 422.467 513.606C422.467 513.606 404.654 508.051 399.58 504.452C396.597 502.326 397.192 499.953 398.184 498.358Z" fill="#C03C57"/>
<path fill-rule="evenodd" clip-rule="evenodd" d="M290.675 497.317H300.425C301.757 497.317 302.841 498.408 302.841 499.733V509.412C302.841 510.744 301.75 511.828 300.425 511.828H290.675C289.343 511.828 288.259 510.737 288.259 509.412V499.733C288.252 498.408 289.343 497.317 290.675 497.317Z" fill="#C03C57"/>
<path d="M290.023 123.608C289.272 107.666 283.462 88.1236 269.936 99.411C245.158 120.087 216.567 166.533 219.558 188.852C223.022 208.097 256.048 257.08 267.463 248.577C273.861 243.808 272.876 238.685 271.962 236.553C263.786 223.515 254.241 193.798 253.398 189.802C250.5 168.29 290.952 143.413 290.023 123.608Z" fill="#6E35A9"/>
<path fill-rule="evenodd" clip-rule="evenodd" d="M274.442 240.06C275.576 239.663 277.716 238.707 280.288 237.686L280.564 243.163C286.247 252.935 302.416 261.522 296.627 263.52C296.252 263.712 287.572 256.073 285.482 256.052C284.596 256.045 294.14 263.159 291.908 263.974C291.065 264.286 283.186 258.32 281.705 258.249C280.748 258.199 287.94 263.223 286.162 264.314C285.637 264.633 280.309 260.856 279.246 260.566C278.722 260.424 282.3 263.839 282.279 263.96C281.478 268.417 267.335 251.68 261.908 247.705C260.739 245.062 263.056 236.255 270.793 236.836L274.442 240.06Z" fill="#F4B1B1"/>
<path fill-rule="evenodd" clip-rule="evenodd" d="M476.799 230.218L464.682 219.165C463.57 218.151 461.792 218.279 460.722 219.448L436.645 245.842C435.582 247.011 435.617 248.796 436.723 249.81L448.839 260.863C449.952 261.877 451.73 261.749 452.8 260.58L476.877 234.186C477.947 233.01 477.904 231.231 476.799 230.218Z" fill="#022FA0"/>
<path fill-rule="evenodd" clip-rule="evenodd" d="M474.375 231.997C474.914 232.485 474.914 233.371 474.383 233.959L452.417 258.043C451.886 258.631 451 258.709 450.462 258.22L439.217 247.96C438.678 247.471 438.678 246.586 439.21 245.998L461.175 221.914C461.706 221.326 462.592 221.248 463.131 221.737L463.882 222.417L464.86 223.31L465.511 223.905L464.909 224.571C464.576 224.932 464.604 225.506 464.966 225.839L470.124 230.551C470.485 230.884 471.059 230.856 471.392 230.494L471.995 229.835L472.654 230.431L472.824 230.587L474.375 231.997Z" fill="#D8E7FF"/>
<path fill-rule="evenodd" clip-rule="evenodd" d="M341.238 140.692L339.07 140.94L340.487 151.27L342.655 151.022L341.238 140.692Z" fill="white"/>
<path d="M319.698 144.096L317.457 144.248L318.165 154.633L320.406 154.48L319.698 144.096Z" fill="white"/>
<path fill-rule="evenodd" clip-rule="evenodd" d="M115.241 462.063C102.226 413.463 59.3303 361.518 50.3629 351.238C109.256 351.504 126.499 427.495 123.981 469.263L115.241 462.063Z" fill="#3DB390"/>
<path fill-rule="evenodd" clip-rule="evenodd" d="M129.569 463.448C140.081 424.198 174.725 382.247 181.964 373.942C132.818 359.726 120.475 435.528 122.509 469.263L129.569 463.448Z" fill="#3DB390"/>
<path fill-rule="evenodd" clip-rule="evenodd" d="M126.039 466.353C129.157 424.75 146.487 353.669 153.73 345.365C104.579 331.148 117.58 431.926 119.613 465.66L126.039 466.353Z" fill="#84CDB3"/>
<path fill-rule="evenodd" clip-rule="evenodd" d="M110.767 475.291C102.599 442.578 69.5905 405.222 48 392.73C95.0886 372.713 116.442 446.486 118.471 480.22L110.767 475.291Z" fill="#84CDB3"/>
<path fill-rule="evenodd" clip-rule="evenodd" d="M85.4675 469.263H151.212V497.095C151.212 512.405 138.686 524.927 123.38 524.927H113.304C97.9938 524.927 85.4723 512.4 85.4723 497.095V469.263H85.4675Z" fill="#B5D2F1"/>
<path d="M151.212 469.263H85.4675V473.979H151.212V469.263Z" fill="#8ABAEA"/>
<path fill-rule="evenodd" clip-rule="evenodd" d="M86.4262 462.063H150.254C152.539 462.063 154.413 463.932 154.413 466.222C154.413 468.512 152.544 470.381 150.254 470.381H86.4262C84.1408 470.381 82.2669 468.512 82.2669 466.222C82.2669 463.932 84.1408 462.063 86.4262 462.063Z" fill="#B5D2F1"/>
<path d="M749 524H49V528.43H749V524Z" fill="#424243"/>
<defs>
<linearGradient id="paint0_linear" x1="586" y1="-326" x2="575.893" y2="553.881" gradientUnits="userSpaceOnUse">
<stop stop-color="#FFA99A"/>
<stop offset="1" stop-color="white"/>
</linearGradient>
</defs>
</svg>
