<svg width="1920" height="990" viewBox="0 0 1920 990" fill="none" xmlns="http://www.w3.org/2000/svg">
<path d="M668.1 947.585C217.883 763.886 190.573 1061.61 -114.143 832.562L3.97198 -14.6039H1909.69V865.568C1609.57 849.565 1654.6 1087.22 1292.11 897.075C1048.05 769.05 959.807 1066.61 668.1 947.585Z" fill="url(#paint0_linear)"/>
<path d="M843.497 933.021C346.405 710.539 275.372 1201.42 -173.696 866.57L-137.845 -477.135L2662.61 -488L2667.56 805.419C2226.44 783.614 2293.95 1132.6 1760.2 855.239C1400.84 668.497 1266.16 1122.19 843.497 933.021Z" fill="url(#paint1_linear)" fill-opacity="0.3"/>
<path d="M99.892 -95.6223C26.3699 -79.4309 -1.06307 -28.7497 -18.2944 21.9737C-66.5525 164.025 -121.467 165.101 -208.754 253.022C-312.736 357.658 -245.982 457.951 -157.161 497.084C-120.355 513.309 -80.2443 527.852 -60.6677 566.193C-45.3695 596.054 -48.2415 638.093 -43.3465 671.402C-25.4506 792.903 103.114 867.619 252.728 745.933C341.279 673.943 356.042 595.719 380.963 488.971C404.42 388.286 463.396 326.112 539.007 259.84C719.459 101.829 670.734 -196.577 278.863 -62.768C217.541 -41.786 158.837 -108.621 99.892 -95.6223Z" fill="url(#paint2_linear)" fill-opacity="0.3"/>
<path d="M1862.06 221.992C1814.83 167.311 1760.07 167.402 1709.96 176.131C1569.62 200.576 1543.51 154.676 1430.29 121.296C1295.5 81.4866 1242.7 183.928 1250.92 276.933C1254.32 315.477 1260.63 356.041 1237.72 390.183C1219.9 416.816 1183.6 433.69 1158.14 453.117C1065.27 524.017 1062.13 666.936 1232.06 737.47C1332.61 779.231 1404.47 755.792 1504.72 727.838C1599.26 701.431 1678.06 722.713 1767.91 756.167C1982.22 836.077 2208.12 657.915 1916.89 388.277C1871.28 346.103 1899.93 265.823 1862.06 221.992Z" fill="url(#paint3_linear)" fill-opacity="0.3"/>
<defs>
<linearGradient id="paint0_linear" x1="3.97146" y1="-14.6032" x2="1916.08" y2="992.458" gradientUnits="userSpaceOnUse">
<stop stop-color="#FF7B91"/>
<stop offset="1" stop-color="#FFBE82"/>
</linearGradient>
<linearGradient id="paint1_linear" x1="-137.845" y1="-477.136" x2="2677.61" y2="991.942" gradientUnits="userSpaceOnUse">
<stop stop-color="#FF4060"/>
<stop offset="1" stop-color="#FFAC60"/>
</linearGradient>
<linearGradient id="paint2_linear" x1="-350.161" y1="279.528" x2="685.844" y2="-154.141" gradientUnits="userSpaceOnUse">
<stop stop-color="#FF607A"/>
<stop offset="1" stop-color="#FFCD9E"/>
</linearGradient>
<linearGradient id="paint3_linear" x1="1343.32" y1="13.9989" x2="2188.36" y2="679.235" gradientUnits="userSpaceOnUse">
<stop stop-color="#FF2549" stop-opacity="0.36"/>
<stop offset="1" stop-color="#FFD5AE"/>
</linearGradient>
</defs>
</svg>
