<svg width="100" height="100" viewBox="0 0 100 100" fill="none" xmlns="http://www.w3.org/2000/svg">
<rect width="100" height="100" rx="5" fill="#FFECE8"/>
<path d="M71.5883 25.5088C71.2897 25.1846 70.8713 25 70.4283 25H29.5703C29.1303 25 28.7099 25.1856 28.4113 25.5088C28.1157 25.8358 27.9684 26.269 28.0057 26.706L31.7271 69.1355C31.7841 69.7897 32.2359 70.3328 32.8645 70.5125L49.5721 75.2269C49.7135 75.2682 49.8549 75.2868 49.9993 75.2868C50.1437 75.2868 50.2881 75.2682 50.4266 75.2299L67.1283 70.5184C67.7568 70.3397 68.2067 69.7926 68.2656 69.1414L71.9929 26.709C72.0352 26.2699 71.8868 25.8358 71.5883 25.5088ZM65.2337 67.7851L50.0003 72.081L34.763 67.7811L31.2871 28.1429H68.7135L65.2337 67.7851Z" fill="#FF6E50"/>
<path d="M38.9991 37.5719H59.3211L58.6915 47.0007H39.3762C38.509 47.0007 37.8048 47.7049 37.8048 48.5721C37.8048 49.4394 38.509 50.1436 39.3762 50.1436H58.4813L57.9283 58.4154L49.9983 61.0584L42.141 58.4399V56.4294C42.141 55.5622 41.4368 54.858 40.5696 54.858C39.7023 54.858 38.9981 55.5622 38.9981 56.4294V59.5724C38.9981 60.2481 39.4322 60.8482 40.0726 61.0653L49.5014 64.2082C49.6615 64.2583 49.8314 64.2868 49.9983 64.2868C50.1683 64.2868 50.3313 64.2583 50.4953 64.2052L59.9241 61.0623C60.5311 60.861 60.9514 60.3139 60.9956 59.6765L62.5671 36.1045C62.5956 35.6704 62.4414 35.2432 62.1458 34.9259C61.8501 34.6087 61.4357 34.429 60.9986 34.429H38.9981C38.1308 34.429 37.4266 35.1332 37.4266 36.0004C37.4276 36.8677 38.1318 37.5719 38.9991 37.5719Z" fill="#FF6E50"/>
</svg>
