<svg width="1905" height="711" viewBox="0 0 1905 711" fill="none" xmlns="http://www.w3.org/2000/svg">
<mask id="mask0" mask-type="alpha" maskUnits="userSpaceOnUse" x="0" y="0" width="1920" height="745">
<rect width="1920" height="745" fill="#C4C4C4"/>
</mask>
<g mask="url(#mask0)">
<path d="M1253.49 96.6174C1732.84 330.087 1694.38 0.188032 2011 272L1913.38 1192.47L-178 1048.93L-112.351 92.4234C215.131 132.373 183.54 -129.28 566.333 104.604C824.064 262.076 942.901 -54.6537 1253.49 96.6174Z" fill="#151515"/>
<path d="M1654.94 169.564C2238.7 465.789 2198.1 60.0375 2581.33 400.065L2443.03 1528.06L-121.451 1309.87L-21.6637 137C379.548 192.615 346.019 -129.222 811.237 165.576C1124.46 364.06 1276.7 -22.3689 1654.94 169.564Z" fill="#474747" fill-opacity="0.15"/>
</g>
</svg>
