<svg width="100" height="100" viewBox="0 0 100 100" fill="none" xmlns="http://www.w3.org/2000/svg">
<rect width="100" height="100" rx="5" fill="#EEEFFF"/>
<path d="M78.1875 25H21.8125C19.7104 25 18 26.7104 18 28.8125V71.1875C18 73.2896 19.7104 75 21.8125 75H78.1875C80.2896 75 82 73.2896 82 71.1875V28.8125C82 26.7104 80.2896 25 78.1875 25ZM79.5 71.1875C79.5 71.9111 78.9111 72.5 78.1875 72.5H21.8125C21.0889 72.5 20.5 71.9111 20.5 71.1875V28.8125C20.5 28.0889 21.0889 27.5 21.8125 27.5H78.1875C78.9111 27.5 79.5 28.0889 79.5 28.8125V71.1875Z" fill="#000AFF"/>
<path d="M75.6709 37.4165H24.3291C23.6387 37.4165 23.0791 37.9761 23.0791 38.6665V68.6665C23.0791 69.3569 23.6387 69.9165 24.3291 69.9165H39.2085C39.8989 69.9165 40.4585 69.3569 40.4585 68.6665C40.4585 67.9761 39.8989 67.4165 39.2085 67.4165H25.5791V39.9165H74.4209V67.4165H49.25C48.5596 67.4165 48 67.9761 48 68.6665C48 69.3569 48.5596 69.9165 49.25 69.9165H75.6709C76.3613 69.9165 76.9209 69.3569 76.9209 68.6665V38.6665C76.9209 37.9766 76.3613 37.4165 75.6709 37.4165Z" fill="#000AFF"/>
<path d="M41.875 33.6665H74.125C74.8154 33.6665 75.375 33.1069 75.375 32.4165C75.375 31.7261 74.8154 31.1665 74.125 31.1665H41.875C41.1846 31.1665 40.625 31.7261 40.625 32.4165C40.625 33.1069 41.1846 33.6665 41.875 33.6665Z" fill="#000AFF"/>
<path d="M25.541 33.6661C25.6226 33.6661 25.7051 33.6588 25.7861 33.6427C25.8662 33.6266 25.9438 33.6027 26.02 33.5714C26.0952 33.5402 26.1675 33.5016 26.2349 33.4562C26.3037 33.4103 26.3677 33.3575 26.4248 33.2999C26.6587 33.0675 26.791 32.7462 26.791 32.4161C26.791 32.3351 26.7837 32.2526 26.7676 32.1725C26.7515 32.0924 26.7275 32.0138 26.6963 31.9391C26.665 31.8639 26.6265 31.7902 26.5811 31.7228C26.5352 31.6549 26.4839 31.59 26.4248 31.5328C26.3677 31.4752 26.3037 31.4225 26.2349 31.3776C26.1675 31.3326 26.0952 31.2941 26.02 31.2628C25.9438 31.2316 25.8662 31.2076 25.7861 31.1915C25.625 31.1588 25.459 31.1588 25.2974 31.1915C25.2173 31.2076 25.1387 31.2316 25.064 31.2628C24.9888 31.2941 24.915 31.3326 24.8477 31.3776C24.7788 31.4225 24.7148 31.4752 24.6577 31.5328C24.6001 31.59 24.5474 31.6549 24.5024 31.7228C24.4575 31.7902 24.4189 31.8639 24.3877 31.9391C24.3564 32.0138 24.3325 32.0924 24.3164 32.1725C24.2998 32.2526 24.291 32.3351 24.291 32.4161C24.291 32.7462 24.4248 33.0675 24.6577 33.2999C24.8901 33.5338 25.2124 33.6661 25.541 33.6661Z" fill="#000AFF"/>
<path d="M29.3877 32.8951C29.4189 32.9703 29.4575 33.0426 29.5024 33.11C29.5474 33.1788 29.6001 33.2428 29.6577 33.2999C29.8901 33.5338 30.2124 33.6661 30.541 33.6661C30.6235 33.6661 30.7051 33.6588 30.7861 33.6427C30.8662 33.6266 30.9438 33.6027 31.02 33.5714C31.0952 33.5402 31.1675 33.5016 31.2349 33.4562C31.3037 33.4103 31.3677 33.359 31.4248 33.2999C31.4839 33.2428 31.5352 33.1788 31.5811 33.11C31.6265 33.0426 31.665 32.9703 31.6963 32.8951C31.7275 32.819 31.7515 32.7413 31.7676 32.6613C31.7837 32.5802 31.791 32.4987 31.791 32.4161C31.791 32.3351 31.7837 32.254 31.7676 32.1725C31.7515 32.0924 31.7275 32.0138 31.6963 31.9391C31.665 31.8639 31.6265 31.7911 31.5811 31.7228C31.5352 31.6549 31.4839 31.59 31.4248 31.5328C31.3677 31.4752 31.3037 31.4225 31.2349 31.3776C31.1675 31.3326 31.0952 31.2941 31.02 31.2628C30.9438 31.2316 30.8662 31.2076 30.7861 31.1915C30.3799 31.109 29.9473 31.2428 29.6577 31.5328C29.6001 31.59 29.5474 31.6549 29.5024 31.7228C29.4575 31.7911 29.4189 31.8639 29.3877 31.9391C29.3564 32.0138 29.3325 32.0924 29.3164 32.1725C29.2998 32.254 29.291 32.3351 29.291 32.4161C29.291 32.4987 29.2998 32.5802 29.3164 32.6613C29.3325 32.7413 29.3564 32.819 29.3877 32.8951Z" fill="#000AFF"/>
<path d="M34.3877 32.8951C34.4189 32.9703 34.4575 33.0426 34.5024 33.11C34.5474 33.1788 34.6001 33.2428 34.6577 33.2999C34.7148 33.359 34.7788 33.4103 34.8477 33.4562C34.915 33.5016 34.9888 33.5402 35.064 33.5714C35.1387 33.6027 35.2173 33.6266 35.2974 33.6427C35.3774 33.6588 35.46 33.6661 35.541 33.6661C35.6235 33.6661 35.7051 33.6588 35.7861 33.6427C35.8662 33.6266 35.9438 33.6027 36.02 33.5714C36.0952 33.5402 36.1675 33.5016 36.2349 33.4562C36.3037 33.4103 36.3677 33.359 36.4248 33.2999C36.4824 33.2428 36.5352 33.1788 36.5811 33.11C36.6265 33.0426 36.665 32.9703 36.6963 32.8951C36.7275 32.819 36.7515 32.7413 36.7676 32.6613C36.7837 32.5802 36.791 32.4987 36.791 32.4161C36.791 32.3351 36.7837 32.2526 36.7676 32.1725C36.7515 32.0924 36.7275 32.0138 36.6963 31.9391C36.665 31.8639 36.6265 31.7902 36.5811 31.7228C36.5352 31.6539 36.4824 31.59 36.4248 31.5328C36.3677 31.4752 36.3037 31.4225 36.2349 31.3776C36.1675 31.3326 36.0952 31.2941 36.02 31.2628C35.9438 31.2316 35.8662 31.2076 35.7861 31.1915C35.625 31.1588 35.459 31.1588 35.2974 31.1915C35.2173 31.2076 35.1387 31.2316 35.064 31.2628C34.9888 31.2941 34.915 31.3326 34.8477 31.3776C34.7788 31.4225 34.7148 31.4752 34.6577 31.5328C34.6001 31.59 34.5474 31.6539 34.5024 31.7228C34.4575 31.7902 34.4189 31.8639 34.3877 31.9391C34.3564 32.0138 34.3325 32.0924 34.3164 32.1725C34.2998 32.2526 34.291 32.3351 34.291 32.4161C34.291 32.4987 34.2998 32.5802 34.3164 32.6613C34.3325 32.7413 34.3564 32.819 34.3877 32.8951Z" fill="#000AFF"/>
<path d="M40.0747 46.6871C39.6255 46.1626 38.8364 46.1016 38.312 46.5503L30.8955 52.9009C30.6152 53.1407 30.4555 53.4917 30.4585 53.8604C30.4614 54.2295 30.6269 54.5777 30.9111 54.813L38.4111 61.0254C38.644 61.2183 38.9267 61.3125 39.2075 61.3125C39.5669 61.3125 39.9238 61.1582 40.1709 60.8599C40.6113 60.3282 40.5376 59.5401 40.0058 59.1001L33.6489 53.8345L39.9385 48.4497C40.4624 48.0005 40.5234 47.2115 40.0747 46.6871Z" fill="#000AFF"/>
<path d="M58.3403 60.8106C58.5874 61.1011 58.9389 61.25 59.2925 61.25C59.5791 61.25 59.8672 61.1519 60.1025 60.9517L67.519 54.6328C67.8003 54.3931 67.9614 54.041 67.958 53.6714C67.9551 53.3013 67.7886 52.9522 67.5034 52.7168L60.0034 46.5356C59.4707 46.0962 58.6826 46.1724 58.2436 46.7051C57.8047 47.2378 57.8804 48.0254 58.4131 48.4648L64.7622 53.6973L58.4809 59.0488C57.9556 59.4961 57.8926 60.2852 58.3403 60.8106Z" fill="#000AFF"/>
<path d="M53.5947 46.3824C53.0004 46.0308 52.2338 46.2276 51.8823 46.8218L44.4658 59.3638C44.1142 59.9581 44.311 60.7247 44.9052 61.0762C45.1049 61.1944 45.3242 61.2506 45.5405 61.2506C45.9677 61.2506 46.3842 61.0308 46.6176 60.6363L54.0341 48.0948C54.3857 47.5006 54.1889 46.734 53.5947 46.3824Z" fill="#000AFF"/>
<path d="M45.4038 68.2726C45.3726 68.1964 45.334 68.1237 45.2886 68.0563C45.2437 67.9874 45.1914 67.9239 45.1338 67.8663C45.0762 67.8087 45.0127 67.7565 44.9438 67.7115C44.8765 67.6661 44.8037 67.6276 44.7275 67.5963C44.6523 67.5651 44.5737 67.5402 44.4937 67.525C44.0889 67.4425 43.6562 67.5763 43.3662 67.8663C43.3086 67.9239 43.2563 67.9874 43.2114 68.0563C43.166 68.1237 43.1274 68.1964 43.0962 68.2726C43.0649 68.3478 43.04 68.4264 43.0249 68.5065C43.0088 68.5865 43 68.6691 43 68.7501C43 69.0787 43.1338 69.4015 43.3662 69.6339C43.5986 69.8663 43.9214 70.0001 44.25 70.0001C44.3311 70.0001 44.4136 69.9928 44.4937 69.9762C44.5737 69.9601 44.6523 69.9352 44.7275 69.9039C44.8037 69.8727 44.8765 69.8341 44.9438 69.7887C45.0127 69.7438 45.0762 69.6915 45.1338 69.6339C45.1914 69.5763 45.2437 69.5128 45.2886 69.444C45.334 69.3766 45.3726 69.3038 45.4038 69.2277C45.4351 69.1525 45.46 69.0738 45.4751 68.9938C45.4912 68.9137 45.5 68.8312 45.5 68.7501C45.5 68.6691 45.4912 68.5865 45.4751 68.5065C45.46 68.4264 45.4351 68.3478 45.4038 68.2726Z" fill="#000AFF"/>
</svg>
