<svg width="862" height="632" viewBox="0 0 862 632" fill="none" xmlns="http://www.w3.org/2000/svg">
<path fill-rule="evenodd" clip-rule="evenodd" d="M410.778 373.046V16.2576C410.778 8.13186 417.329 1.49359 425.329 1.49359H740.166C748.167 1.49359 754.717 8.14416 754.717 16.2576V373.046C754.717 381.166 748.173 387.81 740.166 387.81H425.323C417.323 387.81 410.778 381.172 410.778 373.046Z" fill="#C7AEF9"/>
<path fill-rule="evenodd" clip-rule="evenodd" d="M412.505 373.046V16.2575C412.505 9.09679 418.288 3.24527 425.33 3.24527H740.167C747.209 3.24527 752.991 9.11522 752.991 16.2575V373.04C752.991 380.189 747.221 386.059 740.167 386.059H425.323C418.275 386.059 412.505 380.201 412.505 373.046Z" fill="white"/>
<path fill-rule="evenodd" clip-rule="evenodd" d="M752.991 35.195V16.2575C752.991 9.09678 747.221 3.24527 740.167 3.24527H425.33C418.275 3.24527 412.505 9.10293 412.505 16.2575V35.195H752.991Z" fill="#9564F2"/>
<path fill-rule="evenodd" clip-rule="evenodd" d="M676.394 14.7579C678.822 10.4922 684.198 9.02928 688.401 11.494C692.605 13.9588 694.049 19.4169 691.621 23.6826C689.194 27.9484 683.817 29.4112 679.608 26.9465C675.405 24.4817 673.967 19.0297 676.394 14.7579Z" fill="#E3D5FF"/>
<path fill-rule="evenodd" clip-rule="evenodd" d="M722.389 14.7579C724.816 10.4922 730.193 9.02928 734.396 11.494C738.599 13.9588 740.043 19.4169 737.616 23.6826C735.189 27.9484 729.812 29.4112 725.609 26.9465C721.4 24.4817 719.962 19.0297 722.389 14.7579Z" fill="#FB394B"/>
<path fill-rule="evenodd" clip-rule="evenodd" d="M699.388 14.7579C701.815 10.4922 707.192 9.02928 711.395 11.494C715.598 13.9588 717.042 19.4169 714.615 23.6826C712.188 27.9484 706.811 29.4112 702.608 26.9465C698.405 24.4817 696.961 19.0297 699.388 14.7579Z" fill="#3EA5EC"/>
<path fill-rule="evenodd" clip-rule="evenodd" d="M69.3262 116.723V12.582C69.3262 5.65483 74.9979 0 81.9231 0H386.461C393.387 0 399.058 5.66712 399.058 12.582V116.723C399.058 123.644 393.393 129.305 386.461 129.305H81.9231C74.9856 129.311 69.3262 123.65 69.3262 116.723Z" fill="#C7AEF9"/>
<path fill-rule="evenodd" clip-rule="evenodd" d="M70.8196 116.723V12.582C70.8196 6.47843 75.8276 1.48743 81.9233 1.48743H386.462C392.557 1.48743 397.565 6.49072 397.565 12.582V116.723C397.565 122.814 392.57 127.811 386.462 127.811H81.9233C75.8153 127.817 70.8196 122.826 70.8196 116.723Z" fill="white"/>
<path fill-rule="evenodd" clip-rule="evenodd" d="M251 48.8214L261.016 38.2002C272.931 50.2659 275.475 69.2403 266.387 84.1948L254.195 76.1736C259.351 67.2365 257.87 56.1051 251 48.8214Z" fill="#FFA000"/>
<path fill-rule="evenodd" clip-rule="evenodd" d="M221.509 83.9427C231.777 90.6978 245.449 88.19 252.694 78.46L264.886 86.4813C253.204 102.942 230.493 107.312 213.496 96.1252C200.303 87.4463 194.349 71.8955 197.243 57.2975L211.45 60.6658C209.914 69.4615 213.576 78.7305 221.509 83.9427Z" fill="#FB394B"/>
<path fill-rule="evenodd" clip-rule="evenodd" d="M234.168 41.5624C226.677 41.5808 219.334 45.238 214.91 51.9685C213.65 53.8862 212.71 55.9207 212.083 58.0105L197.876 54.6422C198.896 50.942 200.506 47.334 202.724 43.9534C210.117 32.7113 222.492 26.7246 235.016 26.9827L234.168 41.5624Z" fill="#D1B8FF"/>
<path fill-rule="evenodd" clip-rule="evenodd" d="M236.897 41.716L237.745 27.1425C243.675 27.6957 249.561 29.6749 254.889 33.1784C256.358 34.1496 257.74 35.2006 259.031 36.3255L249.015 46.9467C248.345 46.3812 247.632 45.8526 246.882 45.3609C243.773 43.3202 240.35 42.1216 236.897 41.716Z" fill="#332A7C"/>
<path fill-rule="evenodd" clip-rule="evenodd" d="M122.559 51.446L110.115 43.8181C119.474 29.6811 137.515 23.3071 154.008 29.134L148.662 42.7117C138.867 39.5032 128.28 43.2281 122.559 51.446Z" fill="#FB394B"/>
<path fill-rule="evenodd" clip-rule="evenodd" d="M162.961 73.1126C167.465 61.68 162.211 48.8153 151.206 43.7136L156.552 30.1359C175.048 38.194 183.976 59.5287 176.523 78.4539C170.734 93.1442 156.742 102.161 141.878 102.321L142.259 87.7291C151.169 87.4279 159.483 81.9452 162.961 73.1126Z" fill="#332A7C"/>
<path fill-rule="evenodd" clip-rule="evenodd" d="M118.909 69.4123C120.457 76.7451 125.545 83.1805 133.036 86.1309C135.168 86.973 137.349 87.4708 139.524 87.6614L139.144 102.253C135.315 102.014 131.456 101.178 127.696 99.6963C115.185 94.7668 106.791 83.8812 104.48 71.5697L118.909 69.4123Z" fill="#D1B8FF"/>
<path fill-rule="evenodd" clip-rule="evenodd" d="M118.503 66.7078L104.069 68.8653C103.399 62.9462 104.124 56.7812 106.459 50.8497C107.105 49.2086 107.854 47.6412 108.69 46.1538L121.133 53.7816C120.722 54.5561 120.347 55.3613 120.021 56.1972C118.663 59.6516 118.19 63.2412 118.503 66.7078Z" fill="#FFA000"/>
<path fill-rule="evenodd" clip-rule="evenodd" d="M317.85 43.4125L311.349 30.3449C326.785 23.3317 345.453 27.499 356.342 41.1935L344.605 49.8663C338.012 41.9373 327.061 39.4848 317.85 43.4125Z" fill="#332A7C"/>
<path fill-rule="evenodd" clip-rule="evenodd" d="M340.598 83.2175C350.479 75.9154 352.857 62.2208 346.227 52.0606L357.963 43.3878C369.362 60.0327 365.614 82.8548 349.256 94.9389C336.561 104.319 319.915 104.534 307.232 96.7768L315.3 84.6127C323.012 89.0936 332.966 88.86 340.598 83.2175Z" fill="#D1B8FF"/>
<path fill-rule="evenodd" clip-rule="evenodd" d="M305.228 56.7014C302.653 63.7392 303.551 71.8895 308.331 78.368C309.689 80.2119 311.275 81.7977 313.02 83.107L304.952 95.271C301.836 93.0336 299.01 90.28 296.607 87.0285C288.619 76.2105 287.279 62.5283 291.851 50.8683L305.228 56.7014Z" fill="#FB394B"/>
<path fill-rule="evenodd" clip-rule="evenodd" d="M306.316 54.1935L292.938 48.3604C295.513 42.9883 299.397 38.1448 304.521 34.3585C305.941 33.3136 307.403 32.3794 308.903 31.5619L315.404 44.6294C314.642 45.0658 313.898 45.5514 313.179 46.0862C310.193 48.2989 307.889 51.0895 306.316 54.1935Z" fill="#FFA000"/>
<path fill-rule="evenodd" clip-rule="evenodd" d="M79.7724 140.478H216.225C221.97 140.478 226.671 145.18 226.671 150.94V377.274C226.671 383.027 221.976 387.736 216.225 387.736H79.7724C74.027 387.736 69.3262 383.033 69.3262 377.274V150.934C69.3262 145.18 74.0208 140.478 79.7724 140.478Z" fill="#C7AEF9"/>
<path fill-rule="evenodd" clip-rule="evenodd" d="M79.7726 141.72H216.225C221.288 141.72 225.43 145.869 225.43 150.94V377.274C225.43 382.345 221.288 386.494 216.225 386.494H79.7726C74.7093 386.494 70.5676 382.345 70.5676 377.274V150.934C70.5615 145.863 74.7031 141.72 79.7726 141.72Z" fill="white"/>
<path fill-rule="evenodd" clip-rule="evenodd" d="M93.5737 266.58V251.847C93.5737 250.962 94.2988 250.236 95.1837 250.236H109.913C110.798 250.236 111.523 250.962 111.523 251.847V266.58C111.523 267.465 110.798 268.19 109.913 268.19H95.1837C94.2988 268.19 93.5737 267.465 93.5737 266.58Z" fill="#B38EFE"/>
<path d="M181.691 256.997H121.225V261.429H181.691V256.997Z" fill="#9564F2"/>
<path fill-rule="evenodd" clip-rule="evenodd" d="M93.5737 300.772V286.039C93.5737 285.154 94.2988 284.428 95.1837 284.428H109.913C110.798 284.428 111.523 285.154 111.523 286.039V300.772C111.523 301.657 110.798 302.383 109.913 302.383H95.1837C94.2988 302.383 93.5737 301.657 93.5737 300.772Z" fill="#B38EFE"/>
<path d="M181.691 291.196H121.225V295.628H181.691V291.196Z" fill="#9564F2"/>
<path fill-rule="evenodd" clip-rule="evenodd" d="M93.5737 334.972V320.239C93.5737 319.353 94.2988 318.628 95.1837 318.628H109.913C110.798 318.628 111.523 319.353 111.523 320.239V334.972C111.523 335.857 110.798 336.582 109.913 336.582H95.1837C94.2988 336.582 93.5737 335.857 93.5737 334.972Z" fill="#B38EFE"/>
<path d="M181.691 325.389H121.225V329.821H181.691V325.389Z" fill="#9564F2"/>
<path fill-rule="evenodd" clip-rule="evenodd" d="M188.284 186.694H156.484C152.232 186.694 148.748 190.179 148.748 194.433V226.241C148.748 230.501 152.232 233.979 156.484 233.979H188.284C192.542 233.979 196.02 230.494 196.02 226.241V194.433C196.026 190.179 192.542 186.694 188.284 186.694Z" fill="#C7AEF9"/>
<path fill-rule="evenodd" clip-rule="evenodd" d="M193.206 226.008V194.679C193.206 191.839 190.883 189.516 188.05 189.516H156.73C153.891 189.516 151.575 191.839 151.575 194.679V226.008C151.575 228.847 153.897 231.171 156.73 231.171H188.05C190.883 231.164 193.206 228.847 193.206 226.008Z" fill="white"/>
<path fill-rule="evenodd" clip-rule="evenodd" d="M165.185 204.255L155.218 222.627C154.77 223.45 154.788 224.372 155.268 225.178C155.747 225.983 156.546 226.438 157.486 226.438C167.416 226.438 177.346 226.438 187.282 226.438C188.216 226.438 189.021 225.983 189.501 225.178C189.98 224.372 189.998 223.45 189.55 222.627L184.118 212.608C183.657 211.753 182.821 211.256 181.85 211.256C180.879 211.256 180.044 211.753 179.583 212.608L177.825 215.847C177.641 216.191 177.309 216.388 176.916 216.388C176.529 216.388 176.197 216.191 176.006 215.847L169.72 204.255C169.259 203.4 168.424 202.902 167.453 202.902C166.482 202.909 165.652 203.4 165.185 204.255Z" fill="#C7AEF9"/>
<path fill-rule="evenodd" clip-rule="evenodd" d="M183.841 194.291C181.377 194.291 179.386 196.289 179.386 198.747C179.386 201.206 181.377 203.204 183.841 203.204C186.299 203.204 188.296 201.206 188.296 198.747C188.296 196.283 186.299 194.291 183.841 194.291Z" fill="#C7AEF9"/>
<path fill-rule="evenodd" clip-rule="evenodd" d="M150.383 166.036H104.69C98.5756 166.036 93.5737 171.039 93.5737 177.161V222.867C93.5737 228.983 98.5756 233.992 104.69 233.992H150.383C156.497 233.992 161.505 228.989 161.505 222.867V177.161C161.505 171.039 156.503 166.036 150.383 166.036Z" fill="#8F54FF"/>
<path fill-rule="evenodd" clip-rule="evenodd" d="M157.456 222.522V177.505C157.456 173.43 154.119 170.092 150.045 170.092H105.034C100.954 170.092 97.6233 173.43 97.6233 177.505V222.522C97.6233 226.604 100.96 229.935 105.034 229.935H150.039C154.119 229.935 157.456 226.598 157.456 222.522Z" fill="#F7F5FF"/>
<path fill-rule="evenodd" clip-rule="evenodd" d="M117.194 191.267L102.877 217.667C102.238 218.847 102.262 220.174 102.951 221.33C103.639 222.485 104.794 223.143 106.134 223.143C120.402 223.143 134.67 223.143 148.939 223.143C150.284 223.143 151.44 222.485 152.122 221.33C152.81 220.174 152.834 218.847 152.195 217.667L144.385 203.271C143.722 202.042 142.523 201.329 141.128 201.329C139.734 201.329 138.535 202.042 137.872 203.271L135.346 207.924C135.082 208.416 134.603 208.699 134.043 208.699C133.484 208.699 133.005 208.416 132.741 207.924L123.708 191.267C123.044 190.038 121.846 189.325 120.451 189.325C119.056 189.331 117.858 190.044 117.194 191.267Z" fill="#8F54FF"/>
<path fill-rule="evenodd" clip-rule="evenodd" d="M143.998 176.946C140.465 176.946 137.595 179.81 137.595 183.35C137.595 186.885 140.459 189.755 143.998 189.755C147.531 189.755 150.401 186.891 150.401 183.35C150.395 179.816 147.531 176.946 143.998 176.946Z" fill="#8F54FF"/>
<path fill-rule="evenodd" clip-rule="evenodd" d="M252.148 140.478H388.607C394.352 140.478 399.053 145.18 399.053 150.94V377.274C399.053 383.027 394.359 387.736 388.607 387.736H252.148C246.403 387.736 241.702 383.033 241.702 377.274V150.934C241.708 145.18 246.403 140.478 252.148 140.478Z" fill="#C7AEF9"/>
<path fill-rule="evenodd" clip-rule="evenodd" d="M252.149 141.72H388.601C393.664 141.72 397.806 145.869 397.806 150.94V377.274C397.806 382.345 393.664 386.494 388.601 386.494H252.149C247.085 386.494 242.944 382.345 242.944 377.274V150.934C242.944 145.863 247.085 141.72 252.149 141.72Z" fill="white"/>
<path d="M489.573 72.6639L504.874 66.3821L489.573 59.289V53.9231L511.775 65.0114V68.2076L489.573 77.9991V72.6639ZM487.374 49.854L475.188 82.5475H469.001L481.18 49.854H487.374ZM466.727 78.0052L444.526 68.2138V65.0176L466.727 53.9292V59.2951L451.432 66.3883L466.727 72.67V78.0052Z" fill="#B38EFE"/>
<path d="M489.573 354.284L504.874 348.003L489.573 340.91V335.544L511.775 346.632V349.828L489.573 359.62V354.284ZM487.374 331.475L475.188 364.168H469.001L481.18 331.475H487.374ZM466.727 359.626L444.526 349.834V346.638L466.727 335.55V340.916L451.432 348.009L466.727 354.291V359.626Z" fill="#B38EFE"/>
<path d="M480.196 97.1455H444.415V102.936H480.196V97.1455Z" fill="#FB394B"/>
<path d="M605.785 120.496H444.415V126.286H605.785V120.496Z" fill="#3EA5EC"/>
<path d="M496.486 143.84H444.415V149.63H496.486V143.84Z" fill="#B38EFE"/>
<path d="M623.998 167.191H444.415V172.981H623.998V167.191Z" fill="#B38EFE"/>
<path d="M524.242 190.542H444.415V196.332H524.242V190.542Z" fill="#B38EFE"/>
<path d="M480.006 213.892H444.415V219.682H480.006V213.892Z" fill="#FFA000"/>
<path d="M545.491 237.236H444.415V243.027H545.491V237.236Z" fill="#B38EFE"/>
<path d="M616.617 260.587H503.411V266.377H616.617V260.587Z" fill="#B38EFE"/>
<path d="M524.679 283.937H444.415V289.727H524.679V283.937Z" fill="#3EA5EC"/>
<path d="M587.129 307.288H444.415V313.078H587.129V307.288Z" fill="#FB394B"/>
<path d="M640.097 97.1455H501.451V102.936H640.097V97.1455Z" fill="#B38EFE"/>
<path d="M721.079 120.496H623.131V126.286H721.079V120.496Z" fill="#B38EFE"/>
<path d="M575.422 143.84H518.17V149.63H575.422V143.84Z" fill="#FFA000"/>
<path d="M721.079 143.84H594.938V149.63H721.079V143.84Z" fill="#FB394B"/>
<path d="M721.073 167.191H639.114V172.981H721.073V167.191Z" fill="#3EA5EC"/>
<path d="M656.122 190.542H542.025V196.332H656.122V190.542Z" fill="#B38EFE"/>
<path d="M584.093 213.892H498.219V219.682H584.093V213.892Z" fill="#3EA5EC"/>
<path d="M721.073 213.892H602.306V219.682H721.073V213.892Z" fill="#B38EFE"/>
<path d="M721.079 237.236H570.647V243.027H721.079V237.236Z" fill="#FB394B"/>
<path d="M721.08 260.587H646.979V266.377H721.08V260.587Z" fill="#FFA000"/>
<path d="M721.073 283.937H601.507V289.727H721.073V283.937Z" fill="#B38EFE"/>
<path d="M721.073 307.288H617.483V313.078H721.073V307.288Z" fill="#B38EFE"/>
<path d="M721.08 190.542H676.72V196.332H721.08V190.542Z" fill="#B38EFE"/>
<path d="M721.08 97.1455H663.969V102.936H721.08V97.1455Z" fill="#3EA5EC"/>
<path d="M489.684 260.587H444.415V266.377H489.684V260.587Z" fill="#FB394B"/>
<path d="M589.088 283.937H553.3V289.727H589.088V283.937Z" fill="#FFA000"/>
<path fill-rule="evenodd" clip-rule="evenodd" d="M293.498 251.847H320.05V254.311H293.498V251.847ZM363.365 266.26H314.82V268.719H363.365V266.26ZM323.7 251.847H379.747V254.311H323.7V251.847ZM293.498 259.05H338.798V261.509H293.498V259.05ZM293.498 266.26H306.629V268.719H293.498V266.26ZM372.539 259.05H344.813V261.509H372.539V259.05Z" fill="#1A1840"/>
<path fill-rule="evenodd" clip-rule="evenodd" d="M265.146 268.006V252.56C265.146 251.631 265.907 250.869 266.835 250.869H282.277C283.205 250.869 283.967 251.625 283.967 252.56V268.006C283.967 268.934 283.205 269.696 282.277 269.696H266.829C265.901 269.696 265.146 268.934 265.146 268.006Z" fill="#B38EFE"/>
<path fill-rule="evenodd" clip-rule="evenodd" d="M323.7 286.746H379.747V289.204H323.7V286.746ZM293.498 293.956H366.007V296.414H293.498V293.956ZM293.498 301.159H324.032V303.618H293.498V301.159ZM293.498 286.746H320.05V289.204H293.498V286.746Z" fill="#1A1840"/>
<path fill-rule="evenodd" clip-rule="evenodd" d="M265.146 302.905V287.459C265.146 286.531 265.907 285.768 266.835 285.768H282.277C283.205 285.768 283.967 286.524 283.967 287.459V302.905C283.967 303.833 283.205 304.595 282.277 304.595H266.829C265.901 304.595 265.146 303.833 265.146 302.905Z" fill="#FF5668"/>
<path fill-rule="evenodd" clip-rule="evenodd" d="M278.941 164.64H361.816C365.325 164.64 368.201 167.511 368.201 171.027V223.672C368.201 227.182 365.331 230.058 361.816 230.058H278.941C275.432 230.058 272.556 227.188 272.556 223.672V171.027C272.556 167.517 275.432 164.64 278.941 164.64Z" fill="#D1B8FF"/>
<path d="M338.798 212.977C338.798 214.87 338.478 216.302 337.839 217.279C337.2 218.244 336.143 218.957 334.662 219.4C333.187 219.849 331.141 220.076 328.53 220.076V214.323C330.084 214.286 331.147 213.985 331.731 213.401C332.315 212.829 332.61 211.932 332.61 210.733V203.124V202.847C332.61 201.384 333.077 200.204 333.992 199.295C334.914 198.391 336.272 197.795 338.072 197.506V197.192C334.521 196.621 332.702 194.734 332.61 191.544V183.934C332.61 182.754 332.321 181.869 331.749 181.291C331.166 180.707 330.103 180.394 328.53 180.345V174.622C331.141 174.622 333.187 174.85 334.674 175.298C336.155 175.741 337.218 176.454 337.851 177.437C338.484 178.409 338.798 179.835 338.798 181.697V189.792V190.044C338.798 191.47 339.277 192.54 340.248 193.253C341.206 193.966 342.73 194.322 344.801 194.322V200.413C342.847 200.413 341.36 200.764 340.334 201.458C339.308 202.153 338.798 203.327 338.798 204.968V212.977ZM301.959 204.962C301.959 203.487 301.449 202.356 300.423 201.575C299.397 200.8 297.91 200.413 295.962 200.413V194.322C297.928 194.322 299.415 193.947 300.435 193.209C301.449 192.46 301.965 191.396 301.965 189.995V189.792V181.697C301.965 179.109 302.721 177.278 304.239 176.214C305.751 175.151 308.417 174.622 312.233 174.622V180.345C310.679 180.394 309.616 180.72 309.032 181.316C308.448 181.906 308.153 182.773 308.153 183.928V191.538C308.055 194.728 306.23 196.609 302.666 197.186V197.5C306.322 198.09 308.153 199.891 308.153 202.896V203.124V210.733C308.153 211.889 308.442 212.756 309.02 213.358C309.603 213.948 310.667 214.268 312.24 214.323V220.076C308.424 220.076 305.757 219.547 304.245 218.484C302.727 217.427 301.972 215.583 301.972 212.977V204.962H301.959Z" fill="white"/>
<path fill-rule="evenodd" clip-rule="evenodd" d="M426.889 609.139C191.437 609.139 0.559692 612.502 0.559692 616.651C0.559692 620.799 191.431 624.162 426.889 624.162C662.341 624.162 853.218 620.799 853.218 616.651C853.212 612.502 662.341 609.139 426.889 609.139Z" fill="black" fill-opacity="0.1"/>
<path fill-rule="evenodd" clip-rule="evenodd" d="M472.054 579.179L470.868 598.338L451.291 598.572L450.154 577.753L472.054 579.179Z" fill="#332A7C"/>
<path fill-rule="evenodd" clip-rule="evenodd" d="M421.361 578.651L419.941 596.887L399.762 596.826L399.104 577.981L421.361 578.651Z" fill="#332A7C"/>
<path fill-rule="evenodd" clip-rule="evenodd" d="M474.869 583.17C474.869 583.17 446.529 586.95 447.101 581.448C450.087 552.646 444.87 515.582 448.711 498.74C451.248 487.597 441.251 475.347 439.991 462.943L421.833 365.059L477.837 367.063C480.94 389.061 489.475 446.95 484.301 496.147C482.071 517.309 475.969 557.084 474.869 583.17Z" fill="#2B2468"/>
<path fill-rule="evenodd" clip-rule="evenodd" d="M457.479 584.436C451.746 584.436 446.855 583.766 447.1 581.442C450.087 552.64 444.87 515.576 448.71 498.734C451.248 487.591 441.251 475.341 439.991 462.937L428.242 399.59L453.639 395.976C453.639 395.976 452.158 455.739 459.562 486.859C459.556 486.859 461.148 545.725 457.479 584.436Z" fill="#221E54"/>
<path fill-rule="evenodd" clip-rule="evenodd" d="M400.776 364.328C396.253 376.744 394.059 398.367 400.597 422.609C399.879 441.577 405.98 470.663 405.913 489.072C405.864 502.729 395.903 548.011 394.637 581.27C403.221 584.159 415.142 584.19 424.882 581.786C429.331 546.665 435.66 524.968 441.51 493.995C444.865 476.256 447.476 451.996 450.721 435.271C453.677 420.034 452.626 414.748 462.888 402.657C470.716 393.431 479.608 376.744 478.957 365.901L400.776 364.328Z" fill="#2B2468"/>
<path fill-rule="evenodd" clip-rule="evenodd" d="M400.776 364.328C396.253 376.744 394.059 398.367 400.597 422.609C399.879 441.571 405.98 470.663 405.913 489.072C405.864 502.729 395.903 548.011 394.637 581.27C397.777 582.327 401.372 583.003 405.132 583.311C409.231 554.815 421.699 491.764 421.699 491.764C422.191 483.368 417.256 420.144 417.256 420.144C413.237 407.323 414.331 381.384 416.377 364.623L400.776 364.328Z" fill="#221E54"/>
<path fill-rule="evenodd" clip-rule="evenodd" d="M459.23 616.766C468.269 616.864 474.021 615.727 483.723 616.661C510.324 619.218 514.706 616.501 513.716 608.923C513.723 606.697 483.92 596.838 473.24 586.051C471.895 584.693 466.93 586.402 465.934 588.215C465.111 589.715 465.191 591.952 465.541 593.126C461.196 594.736 454.609 592.862 450.64 591.946C448.655 591.491 448.311 595.117 448.212 599.414C447.93 611.627 446.891 616.63 459.23 616.766Z" fill="#1A1840"/>
<path fill-rule="evenodd" clip-rule="evenodd" d="M425.791 617.848C438.388 617.897 441.59 615.401 440.219 608.8C439.586 605.346 424.685 596.224 421.932 587.785C421.348 587.545 420.199 587.386 418.768 587.293C414.184 586.992 406.711 587.355 405.71 587.81C404.321 589.531 403.381 591.94 403.166 593.882C401.169 594.343 400.388 593.366 399.614 592.856C397.181 591.252 397.82 607.601 398.57 611.652C400.05 619.581 415.234 617.805 425.791 617.848Z" fill="#1A1840"/>
<path fill-rule="evenodd" clip-rule="evenodd" d="M550.026 277.625C556.251 270.63 565.284 271.638 568.012 272.665C578.299 276.543 583.903 264.379 586.711 262.898C592.475 268.227 576.738 295.936 556.81 288.572C547.378 291.393 529.38 330.971 507.098 332.059C500.143 327.394 450.308 278.566 449.343 270.606C445.711 251.134 462.432 248.128 471.79 254.662C474.156 256.456 502.349 299.992 510.398 309.36C517.747 298.302 536.495 290.232 550.026 277.625Z" fill="#FDDDB6"/>
<path fill-rule="evenodd" clip-rule="evenodd" d="M447.512 259.862C441.951 249.056 459.402 233.296 473.511 250.562C480.663 259.321 493.875 283.864 509.845 309.09C513.679 301.326 523.192 295.905 545.737 280.951C549.233 284.479 552.023 292.174 552.902 297.595C552.902 297.595 521.877 334.844 505.593 332.219C481.997 313.693 456.44 284.233 447.512 259.862Z" fill="#FB394B"/>
<path fill-rule="evenodd" clip-rule="evenodd" d="M447.512 259.862C446.467 257.833 446.234 255.633 446.639 253.512L508.997 324.314C508.997 324.314 532.231 308.714 552.079 293.852C552.429 295.161 552.711 296.428 552.896 297.595C552.896 297.595 521.87 334.844 505.587 332.219C481.997 313.693 456.44 284.233 447.512 259.862Z" fill="#F61D2D"/>
<path fill-rule="evenodd" clip-rule="evenodd" d="M447.747 237.034C471.749 239.707 484.973 263.433 475.356 336.989C475.356 336.989 488.487 380.205 477.851 384.403L443.937 388.681C426.437 391.607 393.427 393.66 398.613 366.351C405.133 331.985 394.68 271.43 393.519 252.283C393.912 242.658 415.868 231.287 422.787 232.866C434.603 231.01 436.096 237.218 447.747 237.034Z" fill="#FB394B"/>
<path fill-rule="evenodd" clip-rule="evenodd" d="M481.562 378.509C480.99 381.471 479.835 383.616 477.85 384.397L443.943 388.675C426.443 391.601 393.433 393.654 398.619 366.345C405.139 331.979 394.686 271.423 393.525 252.277C393.66 248.945 396.382 245.399 400.174 242.258L416.064 248.896C418.196 249.788 413.834 316.582 413.053 325.101C412.691 329.072 412.34 336.036 413.317 343.639C418.571 384.729 447.016 387.692 481.562 378.509Z" fill="#F61D2D"/>
<path fill-rule="evenodd" clip-rule="evenodd" d="M376.663 309.501C388.025 314.228 399.153 331.266 417.016 353.345C417.016 353.345 429.699 352.054 431.297 355.932C431.297 355.932 435.641 364.003 433.441 366.793C433.441 366.793 432.126 368.398 430.701 368.207C430.701 368.207 426.504 372.989 423.702 373.339C422.866 374.323 416.531 373.333 413.833 368.594C411.738 368.773 405.845 366.658 405.114 360.333C399.86 355.484 347.856 321.696 356.692 306.901C371.747 286.673 379.527 264.386 398.379 245.245C412.727 244.846 418.724 253.869 411.639 276.414C398.625 288.855 389.678 297.048 376.663 309.501Z" fill="#FDDDB6"/>
<path fill-rule="evenodd" clip-rule="evenodd" d="M403.35 240.525C382.562 242.098 361.479 292.887 354.763 305.918C352.501 327.959 387.318 344.537 396.873 358.299C406.293 358.815 411.535 351.421 413.108 347.407C405.691 337.708 389.653 316.883 378.752 309.6C378.752 309.6 409.476 283.821 412.93 274.589C412.93 274.589 427.118 241.871 403.35 240.525Z" fill="#FB394B"/>
<path fill-rule="evenodd" clip-rule="evenodd" d="M411.013 351.187C411.99 349.829 412.685 348.495 413.115 347.407C405.698 337.708 389.66 316.883 378.759 309.6C378.759 309.6 409.483 283.821 412.936 274.589C412.936 274.589 416.9 265.437 417.127 256.616C401.489 278.406 371.631 310.202 371.631 310.202C377.942 311.284 398.453 335.624 411.013 351.187Z" fill="#F61D2D"/>
<path fill-rule="evenodd" clip-rule="evenodd" d="M458.088 232.055C458.088 232.055 453.006 238.638 457.313 244.736C457.313 244.736 455.249 253.9 442.934 253.666C436.335 253.439 419.037 243.267 419.252 234.698C419.252 234.698 422.066 234.452 422.687 232.608C422.687 232.608 424.899 222.866 422.06 212.46L458.088 232.055Z" fill="#FCBE72"/>
<path fill-rule="evenodd" clip-rule="evenodd" d="M466.254 208.25C466.254 208.25 465.302 221.053 463.563 227.63C463.563 227.63 463.342 234.908 451.986 240.894C451.451 241.177 450.683 241.558 450.21 241.638C447.93 242.044 442.382 241.872 429.926 231.429C429.926 231.429 424.844 226.223 422.65 221.127C422.65 221.127 420.401 216.794 418.195 211.176C415.227 203.628 412.327 193.769 415.043 189.024C415.043 189.024 423.351 169.386 441.872 171.359C441.872 171.359 465.228 171.721 467.545 182.576C473.444 193.105 468.153 200.309 466.254 208.25Z" fill="#FDDDB6"/>
<path fill-rule="evenodd" clip-rule="evenodd" d="M435.672 189.251C442.296 187.942 456.939 202.694 469.597 199.479C469.96 199.387 470.353 199.682 470.728 199.786C470.728 199.786 490.852 192.982 480.215 178.777C482.047 178.15 483.061 163.583 472.141 169.81C471.963 165.126 460.368 162.286 459.176 171.34C460.3 169.066 454.573 162.981 448.152 167.584C448.152 167.584 438.277 158.242 434.141 166.232C434.141 166.232 425.004 158.715 423.062 168.894C423.062 168.894 409.925 166.841 411.633 180.148C409.906 179.361 403.663 187.874 412.309 194.887C413.206 195.619 409.783 197.524 409.789 198.686C409.845 207.512 417.987 215.638 421.428 216.702C416.536 211.151 415 199.503 424.193 203.081C424.801 205.742 424.076 211.213 426.27 210.789L427.53 210.549C428.826 210.297 429.299 204.476 429.748 199.885C434.393 199.405 436.182 195.115 435.672 189.251Z" fill="#221E54"/>
<path d="M104.008 371.71C99.5096 385.754 97.0271 401.121 97.0271 417.219C97.0271 450.545 107.652 480.725 124.833 502.563C126.645 504.868 128.526 507.075 130.48 509.183C144.736 509.183 160.19 509.183 174.446 509.183C174.446 492.053 157.787 495.274 143.875 477.59C131.727 462.138 124.212 440.797 124.212 417.219C124.212 402.799 127.026 389.209 131.991 377.297C132.931 375.041 132.821 372.582 131.69 370.456C130.56 368.329 128.722 367.13 126.584 367.13H109.655C107.086 367.13 104.911 368.901 104.008 371.71Z" fill="#1A1840"/>
<path d="M104.272 371.71C99.7738 385.754 97.2913 401.121 97.2913 417.219C97.2913 450.545 107.916 480.725 125.097 502.563C126.909 504.868 128.79 507.075 130.744 509.183C145 509.183 153.228 509.183 167.484 509.183C167.484 492.053 150.825 495.274 136.913 477.59C124.765 462.138 117.244 440.797 117.244 417.219C117.244 402.799 120.058 389.209 125.023 377.297C125.963 375.041 125.852 372.582 124.722 370.456C123.591 368.329 121.754 367.13 119.615 367.13H109.919C107.35 367.13 105.169 368.907 104.272 371.71Z" fill="#2B2468"/>
<path fill-rule="evenodd" clip-rule="evenodd" d="M238.531 591.952C234.433 591.952 231.108 596.777 231.108 602.727C231.108 608.677 234.433 613.502 238.531 613.502C242.63 613.502 245.954 608.677 245.954 602.727C245.954 596.777 242.63 591.952 238.531 591.952Z" fill="#1A1840"/>
<path fill-rule="evenodd" clip-rule="evenodd" d="M221.952 591.952C217.853 591.952 214.529 596.777 214.529 602.727C214.529 608.677 217.853 613.502 221.952 613.502C226.05 613.502 229.375 608.677 229.375 602.727C229.369 596.777 226.05 591.952 221.952 591.952Z" fill="#1A1840"/>
<path fill-rule="evenodd" clip-rule="evenodd" d="M97.74 591.952C93.6414 591.952 90.317 596.777 90.317 602.727C90.317 608.677 93.6414 613.502 97.74 613.502C101.839 613.502 105.163 608.677 105.163 602.727C105.157 596.777 101.839 591.952 97.74 591.952Z" fill="#1A1840"/>
<path d="M169.573 556.705C147.482 556.705 129.429 562.649 114.945 574.93C108.217 580.634 103.104 587.352 99.5586 594.789C98.7229 596.541 98.9503 598.367 100.192 599.928C101.433 601.489 103.344 602.356 105.568 602.356H109.335C111.725 602.356 113.778 601.348 114.964 599.59C117.416 595.951 120.433 592.62 123.898 589.682C133.927 581.175 154.266 574.266 169.567 574.266C184.867 574.266 205.213 581.181 215.235 589.682C218.707 592.626 221.718 595.957 224.17 599.59C225.356 601.348 227.408 602.356 229.799 602.356H233.565C235.79 602.356 237.701 601.495 238.942 599.928C240.183 598.36 240.411 596.535 239.575 594.789C236.029 587.352 230.911 580.634 224.188 574.93C209.723 562.655 191.664 556.705 169.573 556.705Z" fill="#332A7C"/>
<path d="M103.086 601.964C103.854 602.228 104.689 602.363 105.574 602.363H109.341C111.731 602.363 113.784 601.355 114.97 599.597C126.141 583.039 150.389 574.267 169.573 574.267C188.757 574.267 213.005 583.039 224.176 599.597C225.362 601.355 227.414 602.363 229.805 602.363H233.571C234.456 602.363 235.298 602.228 236.06 601.964C222.523 580.789 194.22 566.67 169.573 566.67C144.926 566.67 116.623 580.789 103.086 601.964Z" fill="#221E54"/>
<path fill-rule="evenodd" clip-rule="evenodd" d="M114.318 591.952C110.22 591.952 106.895 596.777 106.895 602.727C106.895 608.677 110.22 613.502 114.318 613.502C118.417 613.502 121.741 608.677 121.741 602.727C121.741 596.777 118.417 591.952 114.318 591.952Z" fill="#1A1840"/>
<path fill-rule="evenodd" clip-rule="evenodd" d="M180.726 528.484H158.174C150.02 528.484 143.347 521.809 143.347 513.652H195.553C195.553 521.809 188.88 528.484 180.726 528.484Z" fill="#332A7C"/>
<path fill-rule="evenodd" clip-rule="evenodd" d="M183.724 527.889H155.169L158.85 537.459H180.044L183.724 527.889Z" fill="#1A1840"/>
<path fill-rule="evenodd" clip-rule="evenodd" d="M169.45 530.802C166.39 530.802 163.889 533.304 163.889 536.365V570.109C163.889 573.17 166.39 575.672 169.45 575.672C172.51 575.672 175.011 573.17 175.011 570.109V536.365C175.005 533.304 172.504 530.802 169.45 530.802Z" fill="#1A1840"/>
<path fill-rule="evenodd" clip-rule="evenodd" d="M207.468 533.341C207.468 531.466 206.11 529.862 204.445 529.935L179.761 530.987V535.701L204.445 536.752C206.098 536.82 207.468 535.215 207.468 533.341Z" fill="#1A1840"/>
<path fill-rule="evenodd" clip-rule="evenodd" d="M251.115 504.894H87.7793C85.1186 504.894 82.9371 507.069 82.9371 509.737C82.9371 512.398 85.1124 514.581 87.7793 514.581H251.115C253.776 514.581 255.951 512.405 255.951 509.737C255.951 507.076 253.776 504.894 251.115 504.894Z" fill="#221E54"/>
<path fill-rule="evenodd" clip-rule="evenodd" d="M250.366 505.508H88.535C88.535 485.058 105.261 468.328 125.705 468.328H213.195C233.639 468.328 250.366 485.058 250.366 505.508Z" fill="#E3D5FF"/>
<path fill-rule="evenodd" clip-rule="evenodd" d="M171.14 313.238H63.286C55.3161 313.238 48.7903 319.765 48.7903 327.737V336.146C48.7903 373.787 79.5821 404.588 117.213 404.588C154.844 404.588 185.636 373.787 185.636 336.146V327.737C185.636 319.765 179.11 313.238 171.14 313.238Z" fill="#4512B1"/>
<path fill-rule="evenodd" clip-rule="evenodd" d="M172.726 320.933H61.6946C53.4851 320.933 46.7749 327.651 46.7749 335.857V344.511C46.7749 383.265 78.47 414.969 117.213 414.969C155.95 414.969 187.652 383.265 187.652 344.511V335.857C187.652 327.651 180.935 320.933 172.726 320.933Z" fill="#E3D5FF"/>
<path fill-rule="evenodd" clip-rule="evenodd" d="M203.455 336.896C206.343 341.985 215.647 368.01 215.45 382.282C237.049 378.446 255.644 387.679 278.435 389.203C286.177 387.039 291.099 382.841 298.252 380.481C302.166 383.886 305.632 389.615 306.572 392.473C306.074 395.325 303.948 397.538 301.22 399.105C298.117 402.412 292.384 403.242 286.503 403.076C283.467 401.687 280.874 399.806 277.833 398.417C250.218 399.142 211.345 401.158 199.394 395.743C196.622 381.544 181.856 364.684 176.731 348.218C174.126 339.852 172.639 321.708 181.26 317.018C187.706 316.655 198.06 318.554 203.455 336.896Z" fill="#FDCB90"/>
<path fill-rule="evenodd" clip-rule="evenodd" d="M203.456 336.896C206.344 341.985 215.647 368.01 215.45 382.282C237.049 378.453 255.644 387.685 278.435 389.203C286.177 387.039 291.099 382.841 298.252 380.481C302.166 383.886 305.632 389.615 306.578 392.473C306.468 393.112 306.277 393.715 306.013 394.286C303.352 394.975 302.246 395.165 299.137 395.079C296.101 393.69 294.485 391.459 291.45 390.076C288.039 390.168 281.329 394.956 277.648 395.067C251.52 395.866 220.544 392.491 210.061 387.746C207.296 373.548 192.524 356.688 187.399 340.221C185.66 334.64 184.425 324.707 186.348 317.325C192.303 318.456 199.332 322.869 203.456 336.896Z" fill="#FDDDB6"/>
<path fill-rule="evenodd" clip-rule="evenodd" d="M186.957 372.318C183.595 358.2 172.424 347.197 170.937 339.766C169.671 307.362 183.104 304.442 190.699 310.816C202.313 320.571 211.671 350.006 215.745 366.915C207.001 370.321 197.403 371.654 186.957 372.318Z" fill="#FFA000"/>
<path fill-rule="evenodd" clip-rule="evenodd" d="M197.956 582.001C197.956 582.001 194.564 598.418 196.702 601.983C198.841 605.548 204.353 607.706 204.353 607.706C204.353 607.706 206.854 603.846 217.976 622.623C217.976 622.623 219.309 631.708 235.003 631.659C235.003 631.659 242.942 633.773 247.299 627.473C247.299 627.473 248.94 623.871 245.197 619.022C245.197 619.022 234.284 611.424 230.523 598.726C230.523 598.726 227.715 591.897 219.936 585.775C219.936 585.775 216.378 580.304 214.203 580.022C213.392 579.923 198.023 582.044 197.956 582.001Z" fill="#1A1840"/>
<path fill-rule="evenodd" clip-rule="evenodd" d="M250.932 581.134C250.932 581.134 250.103 594.343 252.739 597.422C255.375 600.502 261.028 601.682 261.028 601.682C261.028 601.682 262.81 597.564 276.562 613.821C276.562 613.821 279.328 622.34 294.413 619.747C294.413 619.747 302.395 620.49 305.566 613.717C305.566 613.717 306.562 609.986 302.174 605.929C302.174 605.929 290.438 600.397 284.76 588.792C284.76 588.792 280.95 582.677 272.47 578.061C272.47 578.061 266.571 575.842 265.084 577.981C263.585 580.126 250.932 581.134 250.932 581.134Z" fill="#1A1840"/>
<path fill-rule="evenodd" clip-rule="evenodd" d="M187.983 423.623L252.479 448.437C267.264 454.123 272.683 465.236 273.31 481.874C274.287 507.819 271.424 553.777 275.829 579.334C275.829 579.334 260.566 583.901 248.829 582.782C248.829 582.782 237.627 511.095 237.627 495.446C237.627 495.446 237.904 483.706 238.463 481.192L169.64 467.221L151.931 426.457L187.983 423.623Z" fill="#221E54"/>
<path fill-rule="evenodd" clip-rule="evenodd" d="M187.983 423.623L252.479 448.437C267.263 454.123 272.683 465.236 273.31 481.874C274.287 507.819 271.423 553.777 275.829 579.334C275.829 579.334 267.866 581.713 259.023 582.616C256.209 564.785 246.187 500.332 246.187 486.884C246.187 486.884 246.463 475.144 247.028 472.63L164.989 456.495L151.937 426.451L187.983 423.623Z" fill="#2B2468"/>
<path fill-rule="evenodd" clip-rule="evenodd" d="M112.315 442.149C112.315 442.149 112.758 476.441 142.548 482.089L202.263 496.042C202.263 496.042 189.961 518.975 196.334 582.874C196.334 582.874 213.465 589.482 221.921 586.421C221.921 586.421 226.96 507.53 232.625 496.233C235.98 478.727 224.409 473.238 212.691 466.44L163.489 440.988L159.342 431.633L115 429.358L112.315 442.149Z" fill="#221E54"/>
<path fill-rule="evenodd" clip-rule="evenodd" d="M206.092 585.831C211.401 587.085 217.724 587.939 221.915 586.427C221.915 586.427 226.954 507.536 232.619 496.239C235.974 478.733 224.403 473.245 212.685 466.447L163.483 440.994L159.336 431.639L125.49 429.905L124.107 436.488C124.107 436.488 124.55 470.78 154.34 476.429L214.055 490.381C214.055 490.381 201.336 526.105 206.092 585.831Z" fill="#2B2468"/>
<path fill-rule="evenodd" clip-rule="evenodd" d="M174.144 300.489C199.492 310.822 200.764 343.042 195.074 398.76C195.074 398.76 206.472 421.091 198.957 429.18C189.728 436.519 121.508 440.071 114.662 429.309C106.963 417.212 118.466 414.588 119.879 401.938C123.407 370.431 116.322 328.303 116.905 310.693C120.408 304.429 138.535 296.605 142.13 297.994L174.144 300.489Z" fill="#FF7200"/>
<path fill-rule="evenodd" clip-rule="evenodd" d="M174.145 300.489C199.492 310.822 200.758 343.042 195.074 398.76C195.074 398.76 202.872 414.035 201.317 423.894C181.955 428.344 143.623 428.995 138.087 420.298C130.387 408.202 143.476 405.657 143.304 392.927C142.825 356.995 153.547 317.276 126.332 303.083C132.636 299.629 139.979 297.17 142.13 298L174.145 300.489Z" fill="#FFA000"/>
<path fill-rule="evenodd" clip-rule="evenodd" d="M181.863 298.511C181.863 298.511 176.295 304.664 180.105 311.062C180.105 311.062 177.34 320.018 165.106 318.825C158.561 318.088 142.142 306.624 143.027 298.118C143.027 298.118 145.842 298.093 146.61 296.304C146.61 296.304 149.571 286.79 147.556 276.211L181.863 298.511Z" fill="#FDCB90"/>
<path fill-rule="evenodd" clip-rule="evenodd" d="M193.98 265.56C193.98 265.56 193.722 281.16 192.837 288.462C192.837 288.462 191.817 294.952 180.541 303.06C180.013 303.441 179.245 303.963 178.747 304.123C176.369 304.898 171.73 306.102 156.822 296.766C156.822 296.766 150.604 291.941 147.494 286.808C147.494 286.808 130.713 263.113 134.559 253.537C134.559 253.537 141.651 235.958 161.793 235.312C161.793 235.312 184.837 230.795 188.935 242.086C196.825 252.492 194.828 256.758 193.98 265.56Z" fill="#FDDDB6"/>
<path fill-rule="evenodd" clip-rule="evenodd" d="M210.061 244.993C210.061 244.993 201.243 246.973 195.473 244.336C195.473 244.336 199.719 243.451 203.05 236.886C188.782 244.864 168.639 207.555 140.588 234.495C139.826 232.627 139.254 229.928 139.869 227.894C137.177 231.766 135.174 235.915 135.242 239.394L129.533 236.548L132.016 244.102C120.168 253.371 135.555 273.513 141.018 281.092C143.039 287.786 147.488 290.89 150.794 293.533L148.902 286.052C143.5 283.188 136.047 269.856 146.585 272.591C148.601 277.81 148.287 277.601 151.188 282.549L152.337 282.137C151.298 279.039 151.384 276.107 151.433 273.747C152.392 273.065 155.876 268.461 153.135 262.284C161.818 263.157 205.981 262.296 210.061 244.993Z" fill="#221E54"/>
<path fill-rule="evenodd" clip-rule="evenodd" d="M141.055 331.96C140.827 348.212 140.606 364.463 140.379 380.721C164.976 376.357 186.145 386.873 212.101 388.601C220.919 386.136 226.523 381.36 234.671 378.668C239.126 382.54 243.077 389.068 244.153 392.325C243.587 395.577 241.16 398.097 238.057 399.879C234.524 403.647 227.998 404.588 221.3 404.403C217.84 402.824 214.891 400.679 211.425 399.099C179.982 399.929 134.363 402.559 120.746 396.394C118.263 379.086 114.54 355.028 114.65 332.642C114.877 324.701 117.022 312.814 124.132 309.169C131.469 308.745 139.93 315.217 141.055 331.96Z" fill="#FDCB90"/>
<path fill-rule="evenodd" clip-rule="evenodd" d="M141.055 331.96C140.827 348.212 140.606 364.463 140.379 380.721C164.977 376.357 186.146 386.873 212.101 388.601C220.919 386.136 226.523 381.36 234.671 378.668C239.126 382.54 243.078 389.068 244.153 392.325C243.84 394.139 242.942 395.724 241.677 397.083C237.984 399.234 232.742 399.812 227.396 399.664C223.936 398.085 220.981 395.94 217.521 394.36C186.078 395.19 140.459 397.82 126.842 391.649C124.359 374.341 120.635 350.283 120.746 327.897C120.906 322.181 122.067 314.418 125.355 309.156C132.378 309.488 139.992 316.139 141.055 331.96Z" fill="#FDDDB6"/>
<path fill-rule="evenodd" clip-rule="evenodd" d="M141.356 371.79C148.428 265.54 92.9651 301.584 110.957 372.792C119.812 373.523 131.751 373.431 141.356 371.79Z" fill="#FF7200"/>
<path fill-rule="evenodd" clip-rule="evenodd" d="M141.356 371.79C142.529 354.143 147.433 314.86 126.78 305.352C113.145 303.372 108.53 344.308 117.127 373.142C124.9 373.412 133.841 373.074 141.356 371.79Z" fill="#FFA000"/>
<path fill-rule="evenodd" clip-rule="evenodd" d="M325.081 399.547C289.65 399.468 254.231 399.443 218.8 399.437V405.184H322.438C325.044 405.184 325.019 401.195 325.044 400.537L325.081 399.547Z" fill="#360E94"/>
<path fill-rule="evenodd" clip-rule="evenodd" d="M218.8 399.548L225.473 327.295C225.725 324.578 227.759 322.255 230.591 322.255H327.901C330.666 322.255 333.284 324.59 333.02 327.461L326.469 398.355C326.408 399.037 325.843 399.554 325.161 399.554H218.8V399.548Z" fill="#360E94"/>
<path fill-rule="evenodd" clip-rule="evenodd" d="M219.771 399.32H325.542L332.123 327.381C332.332 325.064 330.212 323.146 327.889 323.146H230.592C228.269 323.146 226.567 325.07 226.358 327.381L219.771 399.32Z" fill="#B38EFE"/>
<path fill-rule="evenodd" clip-rule="evenodd" d="M219.771 399.32H238.254L311.046 323.146H230.592C228.269 323.146 226.567 325.07 226.358 327.381L219.771 399.32Z" fill="#E3D5FF"/>
<path fill-rule="evenodd" clip-rule="evenodd" d="M218.799 399.437C208.74 399.437 198.681 399.437 188.616 399.437L188.646 399.842C188.665 400.119 188.511 405.19 191.006 405.19H218.805V399.437H218.799Z" fill="#B38EFE"/>
<path d="M714.492 372.373C718.929 386.209 721.374 401.342 721.374 417.206C721.374 450.041 710.903 479.766 693.98 501.285C692.198 503.553 690.343 505.729 688.419 507.807C674.378 507.807 659.152 507.807 645.111 507.807C645.111 490.928 661.523 494.106 675.226 476.68C687.197 461.462 694.601 440.434 694.601 417.206C694.601 403.002 691.83 389.615 686.938 377.881C686.017 375.662 686.121 373.234 687.24 371.138C688.352 369.042 690.165 367.862 692.272 367.862H708.949C711.456 367.862 713.607 369.608 714.492 372.373Z" fill="#1A1840"/>
<path d="M714.234 372.373C718.665 386.203 721.116 401.342 721.116 417.206C721.116 450.041 710.646 479.766 693.723 501.285C691.941 503.553 690.085 505.729 688.162 507.807C674.121 507.807 666.016 507.807 651.969 507.807C651.969 490.928 668.381 494.106 682.084 476.68C694.055 461.462 701.459 440.434 701.459 417.206C701.459 403.002 698.688 389.615 693.797 377.881C692.869 375.662 692.979 373.234 694.098 371.138C695.21 369.042 697.023 367.862 699.13 367.862H708.685C711.205 367.862 713.349 369.614 714.234 372.373Z" fill="#2B2468"/>
<path fill-rule="evenodd" clip-rule="evenodd" d="M581.972 589.334C586.009 589.334 589.284 594.085 589.284 599.949C589.284 605.813 586.009 610.564 581.972 610.564C577.935 610.564 574.66 605.813 574.66 599.949C574.666 594.091 577.941 589.334 581.972 589.334Z" fill="#1A1840"/>
<path fill-rule="evenodd" clip-rule="evenodd" d="M598.311 589.334C602.348 589.334 605.624 594.085 605.624 599.949C605.624 605.813 602.348 610.564 598.311 610.564C594.274 610.564 590.999 605.813 590.999 599.949C590.999 594.091 594.274 589.334 598.311 589.334Z" fill="#1A1840"/>
<path fill-rule="evenodd" clip-rule="evenodd" d="M720.674 589.334C724.711 589.334 727.987 594.085 727.987 599.949C727.987 605.813 724.711 610.564 720.674 610.564C716.637 610.564 713.362 605.813 713.362 599.949C713.362 594.091 716.637 589.334 720.674 589.334Z" fill="#1A1840"/>
<path d="M649.904 554.615C671.662 554.615 689.452 560.473 703.714 572.569C710.338 578.187 715.377 584.807 718.873 592.134C719.697 593.855 719.469 595.656 718.247 597.199C717.024 598.741 715.137 599.59 712.95 599.59H709.238C706.885 599.59 704.863 598.594 703.689 596.86C701.274 593.277 698.307 589.995 694.89 587.1C685.015 578.722 664.977 571.912 649.904 571.912C634.83 571.912 614.792 578.722 604.917 587.1C601.501 589.995 598.533 593.277 596.118 596.86C594.944 598.594 592.929 599.59 590.569 599.59H586.858C584.67 599.59 582.783 598.741 581.561 597.199C580.338 595.656 580.117 593.861 580.934 592.134C584.43 584.807 589.463 578.187 596.093 572.569C610.355 560.473 628.145 554.615 649.904 554.615Z" fill="#332A7C"/>
<path d="M715.401 599.197C714.645 599.456 713.822 599.591 712.949 599.591H709.238C706.884 599.591 704.863 598.595 703.689 596.862C692.684 580.549 668.799 571.913 649.897 571.913C631.002 571.913 607.117 580.555 596.105 596.862C594.932 598.595 592.916 599.591 590.556 599.591H586.845C585.972 599.591 585.149 599.456 584.393 599.197C597.727 578.336 625.613 564.426 649.891 564.426C674.188 564.426 702.067 578.336 715.401 599.197Z" fill="#221E54"/>
<path fill-rule="evenodd" clip-rule="evenodd" d="M704.335 589.334C708.372 589.334 711.648 594.085 711.648 599.949C711.648 605.813 708.372 610.564 704.335 610.564C700.298 610.564 697.023 605.813 697.023 599.949C697.029 594.091 700.298 589.334 704.335 589.334Z" fill="#1A1840"/>
<path fill-rule="evenodd" clip-rule="evenodd" d="M638.922 526.812H661.136C669.167 526.812 675.742 520.235 675.742 512.202H624.31C624.316 520.235 630.885 526.812 638.922 526.812Z" fill="#332A7C"/>
<path fill-rule="evenodd" clip-rule="evenodd" d="M635.967 526.229H664.092L660.472 535.652H639.586L635.967 526.229Z" fill="#1A1840"/>
<path fill-rule="evenodd" clip-rule="evenodd" d="M650.026 529.1C653.037 529.1 655.501 531.564 655.501 534.576V567.817C655.501 570.829 653.037 573.293 650.026 573.293C647.015 573.293 644.551 570.829 644.551 567.817V534.576C644.551 531.558 647.015 529.1 650.026 529.1Z" fill="#1A1840"/>
<path fill-rule="evenodd" clip-rule="evenodd" d="M612.573 531.601C612.573 529.757 613.913 528.177 615.554 528.245L639.869 529.278V533.924L615.554 534.957C613.925 535.025 612.573 533.445 612.573 531.601Z" fill="#1A1840"/>
<path fill-rule="evenodd" clip-rule="evenodd" d="M569.578 503.578H730.475C733.098 503.578 735.243 505.723 735.243 508.348C735.243 510.973 733.098 513.118 730.475 513.118H569.578C566.954 513.118 564.81 510.973 564.81 508.348C564.816 505.723 566.954 503.578 569.578 503.578Z" fill="#221E54"/>
<path fill-rule="evenodd" clip-rule="evenodd" d="M570.322 504.18H729.737C729.737 484.032 713.263 467.553 693.12 467.553H606.933C586.796 467.553 570.322 484.032 570.322 504.18Z" fill="#E3D5FF"/>
<path fill-rule="evenodd" clip-rule="evenodd" d="M648.361 314.774H754.606C762.459 314.774 768.886 321.204 768.886 329.059V337.345C768.886 374.427 738.555 404.766 701.483 404.766C664.412 404.766 634.081 374.427 634.081 337.345V329.059C634.081 321.204 640.508 314.774 648.361 314.774Z" fill="#4512B1"/>
<path fill-rule="evenodd" clip-rule="evenodd" d="M646.801 322.353H756.173C764.259 322.353 770.871 328.973 770.871 337.055V345.587C770.871 383.757 739.649 414.994 701.484 414.994C663.318 414.994 632.096 383.763 632.096 345.587V337.055C632.096 328.973 638.714 322.353 646.801 322.353Z" fill="#E3D5FF"/>
<path fill-rule="evenodd" clip-rule="evenodd" d="M631.696 346.306C629.158 350.781 624.347 374.095 621.146 386.234C602.14 382.86 585.782 390.985 565.731 392.319C558.917 390.414 554.591 386.726 548.299 384.648C544.857 387.642 541.803 392.688 540.974 395.202C541.41 397.716 543.284 399.658 545.681 401.035C548.415 403.949 553.454 404.674 558.628 404.532C561.301 403.309 563.581 401.656 566.254 400.433C590.544 401.072 624.747 402.842 635.267 398.079C637.7 385.589 650.696 370.751 655.206 356.264C657.499 348.906 658.807 332.937 651.218 328.813C645.553 328.5 636.446 330.178 631.696 346.306Z" fill="#FDCB90"/>
<path fill-rule="evenodd" clip-rule="evenodd" d="M631.696 346.306C630.535 351.746 623.173 373.677 621.146 386.234C602.14 382.86 585.782 390.985 565.731 392.319C558.917 390.414 554.591 386.726 548.299 384.648C544.857 387.642 541.803 392.688 540.974 395.202C541.072 395.761 541.238 396.29 541.465 396.794C543.807 397.402 544.778 397.568 547.518 397.495C550.191 396.271 551.611 394.311 554.284 393.088C557.288 393.167 563.187 397.378 566.426 397.482C589.414 398.183 616.666 395.22 625.889 391.041C628.323 378.551 641.319 363.713 645.829 349.226C647.36 344.315 648.447 335.58 646.751 329.077C641.51 330.085 635.328 333.97 631.696 346.306Z" fill="#FDDDB6"/>
<path fill-rule="evenodd" clip-rule="evenodd" d="M646.216 377.475C649.172 365.053 659.004 355.372 660.313 348.832C661.431 320.318 649.608 317.749 642.923 323.361C632.704 331.942 627.395 358.888 623.812 373.769C631.506 376.768 637.024 376.891 646.216 377.475Z" fill="#3091D8"/>
<path fill-rule="evenodd" clip-rule="evenodd" d="M619.4 577.686C619.4 577.686 624.107 590.489 623.536 594.3C623.401 595.234 622.989 596.119 622.442 596.931C621.858 597.797 620.832 604.614 620.574 608.197C620.463 609.758 619.37 609.119 619.075 609.347C618.061 610.14 617.655 601.233 617.655 601.233C617.655 601.233 616.887 598.553 610.57 618.327C610.57 618.327 611.265 627.03 596.714 630.325C596.714 630.325 589.807 633.976 584.424 629.065C584.424 629.065 582.138 626.078 584.571 620.785C584.571 620.785 593.07 611.418 593.856 598.848C593.856 598.848 595.005 591.921 600.917 584.594C600.917 584.594 603.049 578.767 605.009 578.042C610.65 575.94 615.4 581.896 619.4 577.686Z" fill="#1A1840"/>
<path fill-rule="evenodd" clip-rule="evenodd" d="M580.59 576.106C580.59 576.106 582.833 589.112 580.553 592.45C579.656 593.759 579.975 601.884 579.158 605.837C578.808 607.521 577.358 606.962 576.983 607.214C575.987 607.884 574.611 597.539 574.611 597.539C574.611 597.539 572.399 593.648 560.521 611.246C560.521 611.246 558.702 619.992 543.463 619.046C543.463 619.046 535.634 620.644 531.763 614.27C531.763 614.27 530.374 610.68 534.288 606.181C534.288 606.181 545.325 599.426 549.706 587.311C549.706 587.311 552.827 580.839 560.736 575.344C560.736 575.344 566.34 572.51 568.048 574.471C569.75 576.444 580.59 576.106 580.59 576.106Z" fill="#1A1840"/>
<path fill-rule="evenodd" clip-rule="evenodd" d="M647.009 429.727L582.433 454.571C567.624 460.263 562.204 471.388 561.578 488.052C560.594 514.027 565.535 549.573 561.123 575.167C561.123 575.167 568.939 577.798 580.688 576.679C580.688 576.679 591.779 519.977 591.779 504.309C591.779 504.309 591.116 490.461 590.557 487.941L656.798 473.38L683.104 432.567L647.009 429.727Z" fill="#FB394B"/>
<path fill-rule="evenodd" clip-rule="evenodd" d="M570.96 576.82C573.738 577.01 577.019 577.023 580.688 576.672C580.688 576.672 591.779 519.971 591.779 504.303C591.779 504.303 591.116 490.455 590.556 487.935L656.798 473.374L683.104 432.561L680.744 432.376C647.199 454.129 609.599 474.584 578.715 482.292C578.715 482.292 579.981 539.83 570.96 576.82Z" fill="#F61D2D"/>
<path fill-rule="evenodd" clip-rule="evenodd" d="M677.315 481.868L616.113 496.085C616.113 496.085 625.527 512.533 619.4 577.681C617.618 580.422 609.704 587.214 601.439 584.344C601.439 584.344 595.546 507.678 589.893 496.761C586.415 479.778 597.592 474.296 608.905 467.534L656.435 442.161L660.349 433.009L699.646 426.113C711.253 444.989 710.147 470.718 677.315 481.868Z" fill="#FB394B"/>
<path fill-rule="evenodd" clip-rule="evenodd" d="M677.315 481.868L616.113 496.085C616.113 496.085 625.526 512.533 619.4 577.681C618.386 579.236 615.388 582.106 611.473 583.766C615.842 547.778 608.382 492.053 608.272 489.097C620.967 486.939 665.462 478.481 685.451 465.666C699.713 456.526 699.873 441.104 693.98 427.115L699.646 426.119C711.253 444.989 710.147 470.718 677.315 481.868Z" fill="#F61D2D"/>
<path fill-rule="evenodd" clip-rule="evenodd" d="M665.395 277.576C665.395 277.576 644.287 264.89 653.468 255.867C645.535 231.084 713.552 225.208 703.407 287.153C702.276 294.067 702.233 318.69 716.692 314.099C712.231 332.871 667.527 331.082 665.395 277.576Z" fill="#221E54"/>
<path fill-rule="evenodd" clip-rule="evenodd" d="M649.221 315.346C644.607 325.998 611.215 353.092 629.085 375.674C636.071 384.501 636.704 400.156 635.223 416.174C635.223 416.174 625.103 432.475 632.95 440.231C642.849 444.97 663.637 444.061 674.003 444.528C674.003 444.528 696.58 446.04 703.179 435.88C709.097 426.771 703.72 425.271 701.766 412.707C696.905 381.409 704.556 347.923 703.222 330.368C699.462 324.271 680.468 311.517 676.935 313.059L649.221 315.346Z" fill="#3091D8"/>
<path fill-rule="evenodd" clip-rule="evenodd" d="M649.221 315.346C644.613 325.998 611.216 353.092 629.085 375.674C636.071 384.501 636.704 400.156 635.223 416.174C635.223 416.174 630.228 424.22 629.976 431.694C638.124 431.516 646.505 430.649 651.974 430.895C651.974 430.895 674.55 435.025 681.15 424.865C687.068 415.762 684.782 414.256 682.834 401.693C678.969 376.774 670.882 331.29 695.959 322.322C688.966 316.882 679.823 311.615 677.482 312.635L649.221 315.346Z" fill="#3EA5EC"/>
<path fill-rule="evenodd" clip-rule="evenodd" d="M661.61 247.249C656.282 247.237 651.944 251.22 651.932 256.149C651.919 261.079 656.233 265.086 661.561 265.105C666.894 265.117 671.226 261.134 671.239 256.205C671.257 251.275 666.943 247.267 661.61 247.249Z" fill="#217DC5"/>
<path fill-rule="evenodd" clip-rule="evenodd" d="M660.928 248.749C654.887 248.73 649.984 252.713 649.965 257.643C649.953 262.572 654.838 266.58 660.879 266.598C666.919 266.617 671.829 262.634 671.841 257.704C671.853 252.775 666.968 248.767 660.928 248.749Z" fill="#3EA5EC"/>
<path fill-rule="evenodd" clip-rule="evenodd" d="M678.693 285.91C675.694 284.545 671.687 286.918 669.733 291.208C667.785 295.498 668.633 300.078 671.632 301.442C674.631 302.807 678.637 300.434 680.591 296.144C682.539 291.853 681.685 287.274 678.693 285.91Z" fill="#FDDDB6"/>
<path fill-rule="evenodd" clip-rule="evenodd" d="M643.304 314.418C643.304 314.418 648.244 320.275 644.521 326.059C644.521 326.059 646.782 334.412 658.113 333.712C664.178 333.238 679.7 323.195 679.159 315.315C679.159 315.315 676.56 315.198 675.915 313.526C675.915 313.526 673.494 304.645 675.693 294.952L643.304 314.418Z" fill="#FDCB90"/>
<path fill-rule="evenodd" clip-rule="evenodd" d="M633.994 295.284C633.994 295.284 636.336 306.158 639.045 311.628C639.912 316.023 649.535 323.085 653.449 322.993C655.52 322.944 661.259 321.272 670.329 309.858C670.329 309.858 673.862 304.369 674.876 299.495C674.876 299.495 681.451 276.335 675.798 269.911C675.798 269.911 664.97 254.139 649.049 259.198C649.049 259.198 631.37 261.804 631.278 271.761C627.979 282.082 630.903 288.64 633.994 295.284Z" fill="#FDDDB6"/>
<path fill-rule="evenodd" clip-rule="evenodd" d="M634.492 302.574C634.044 298.899 633.927 298.265 633.35 293.735C642.493 295.383 658.844 291.019 663.576 277.957C664.037 286.943 670.083 289.968 674.569 291.172L674.526 300.964L678.225 285.96C683.19 271.221 681.365 252.283 663.213 250.986C640.686 246.665 626.234 263.07 629.269 283.661C630.302 290.619 633.374 302.574 634.492 302.574Z" fill="#2B2468"/>
<path fill-rule="evenodd" clip-rule="evenodd" d="M684.191 346.128C684.388 360.363 684.585 374.593 684.781 388.822C663.655 387.414 644.705 394.206 621.975 395.724C614.251 393.567 609.347 389.381 602.213 387.027C598.311 390.42 594.852 396.136 593.911 398.988C594.403 401.834 596.529 404.041 599.245 405.602C602.342 408.903 608.057 409.726 613.919 409.566C616.948 408.183 619.535 406.303 622.565 404.92C650.1 405.645 690.047 407.95 701.968 402.547C704.144 387.39 707.407 366.325 707.302 346.724C707.105 339.772 705.225 329.36 699 326.164C692.591 325.801 685.181 331.462 684.191 346.128Z" fill="#FDCB90"/>
<path fill-rule="evenodd" clip-rule="evenodd" d="M684.191 346.128C684.388 360.363 684.585 374.592 684.781 388.822C663.858 386.793 644.705 394.206 621.975 395.724C614.251 393.567 609.347 389.381 602.213 387.027C598.311 390.42 594.852 396.136 593.911 398.988C594.188 400.58 594.968 401.963 596.081 403.155C599.313 405.042 603.903 405.54 608.585 405.411C611.615 404.028 614.202 402.147 617.231 400.764C644.766 401.49 684.714 403.795 696.635 398.392C698.81 383.234 702.067 362.17 701.968 342.569C701.827 337.566 700.813 330.768 697.937 326.158C691.793 326.453 685.125 332.273 684.191 346.128Z" fill="#FDDDB6"/>
<path fill-rule="evenodd" clip-rule="evenodd" d="M684.143 381.065C678.767 288.024 719.464 319.575 705.798 381.925C699.069 382.571 691.443 382.497 684.143 381.065Z" fill="#3091D8"/>
<path fill-rule="evenodd" clip-rule="evenodd" d="M683.824 381.003C682.89 365.551 678.994 331.155 695.407 322.826C706.24 321.093 709.909 356.94 703.082 382.19C696.9 382.423 689.79 382.128 683.824 381.003Z" fill="#3EA5EC"/>
<path fill-rule="evenodd" clip-rule="evenodd" d="M517.027 400.095C550.08 400.021 583.121 399.996 616.174 399.99V405.356H519.491C517.058 405.356 517.083 401.631 517.058 401.023L517.027 400.095Z" fill="#A67DF5"/>
<path fill-rule="evenodd" clip-rule="evenodd" d="M616.175 400.095L609.95 332.692C609.716 330.153 607.811 327.99 605.175 327.99H514.398C511.817 327.99 509.377 330.172 509.623 332.845L515.731 398.982C515.792 399.615 516.315 400.095 516.954 400.095H616.175Z" fill="#D1B8FF"/>
<path fill-rule="evenodd" clip-rule="evenodd" d="M615.265 399.879H516.591L510.452 332.771C510.256 330.608 512.234 328.819 514.404 328.819H605.181C607.351 328.819 608.936 330.614 609.133 332.771L615.265 399.879Z" fill="#A67DF5"/>
<path fill-rule="evenodd" clip-rule="evenodd" d="M615.265 399.879H598.029L530.122 328.819H605.175C607.344 328.819 608.93 330.614 609.126 332.771L615.265 399.879Z" fill="#B695F7"/>
<path fill-rule="evenodd" clip-rule="evenodd" d="M616.174 399.99C625.557 399.99 634.947 399.99 644.33 399.99L644.305 400.365C644.287 400.623 644.434 405.356 642.106 405.356H616.174V399.99Z" fill="#8F54FF"/>
<path d="M69.142 417.182H48.907V616.305H69.142V417.182Z" fill="#DCDCF4"/>
<path d="M69.142 417.182H62.2106V616.305H69.142V417.182Z" fill="#BCBBE2"/>
<path d="M760.1 417.182H739.865V616.305H760.1V417.182Z" fill="#DCDCF4"/>
<path d="M760.094 417.182H753.163V616.305H760.094V417.182Z" fill="#BCBBE2"/>
<path fill-rule="evenodd" clip-rule="evenodd" d="M825.426 616.311H777.509L769.803 574.908H833.132L825.426 616.311Z" fill="#3EA5EC"/>
<path fill-rule="evenodd" clip-rule="evenodd" d="M825.425 616.311H821.634L827.508 574.908H833.131L825.425 616.311Z" fill="#6BB9F1"/>
<path fill-rule="evenodd" clip-rule="evenodd" d="M770.344 577.803L769.803 574.908H833.132L832.591 577.803H770.344Z" fill="#3091D8"/>
<path fill-rule="evenodd" clip-rule="evenodd" d="M827.507 574.908H833.13L832.589 577.803H827.102L827.507 574.908Z" fill="#3EA5EC"/>
<path fill-rule="evenodd" clip-rule="evenodd" d="M825.426 616.31H777.509L769.803 574.914H776.562C777.595 591.663 785.472 618.394 826.55 610.238L825.426 616.31Z" fill="#3091D8"/>
<path fill-rule="evenodd" clip-rule="evenodd" d="M825.425 616.312H821.634L822.396 610.959C823.741 610.756 825.13 610.522 826.556 610.24L825.425 616.312Z" fill="#3EA5EC"/>
<path fill-rule="evenodd" clip-rule="evenodd" d="M838.016 559.884H764.917L766.017 574.906H836.917L838.016 559.884Z" fill="#6BB9F1"/>
<path fill-rule="evenodd" clip-rule="evenodd" d="M838.015 559.884H829.639L827.507 574.906H836.915L838.015 559.884Z" fill="#99CCF6"/>
<path fill-rule="evenodd" clip-rule="evenodd" d="M776.937 559.884H764.917L766.017 574.906H776.937V559.884Z" fill="#3EA5EC"/>
<path fill-rule="evenodd" clip-rule="evenodd" d="M797.799 558.817C797.799 558.817 793.128 474.738 816.196 412.412C810.537 444.516 807.722 521.642 816.036 559.88H800.637L797.799 558.817Z" fill="#4512B1"/>
<path fill-rule="evenodd" clip-rule="evenodd" d="M808.054 559.88C808.122 537.777 806.02 477.639 783.291 427.797C789.982 458.597 793.958 521.956 785.269 559.862L785.497 559.88H808.054Z" fill="#E3D5FF"/>
<path fill-rule="evenodd" clip-rule="evenodd" d="M803.046 559.88C802.204 542.068 796.293 486.57 756.321 425.597C756.321 425.597 785.269 515.619 786.123 559.88H803.046Z" fill="#8F54FF"/>
<path fill-rule="evenodd" clip-rule="evenodd" d="M790.72 559.88C792.108 536.837 801.295 456.385 862 399.185C849.839 411.558 816.983 508.907 816.565 559.88H790.72Z" fill="#9564F2"/>
<path fill-rule="evenodd" clip-rule="evenodd" d="M841.636 444.202C829.248 480.037 816.823 528.65 816.565 559.874H808.521C809.855 545.755 812.22 531.077 815.686 516.141C821.899 489.41 830.919 464.971 841.636 444.202Z" fill="#B695F7"/>
<path fill-rule="evenodd" clip-rule="evenodd" d="M24.7579 405.184V420.507C278.743 420.507 532.734 420.507 786.718 420.507V405.184C532.727 405.184 278.743 405.184 24.7579 405.184Z" fill="#1A1840"/>
<path fill-rule="evenodd" clip-rule="evenodd" d="M24.7579 405.184V415.799C278.743 415.799 532.734 415.799 786.718 415.799V405.184C532.727 405.184 278.743 405.184 24.7579 405.184Z" fill="#332A7C"/>
<path fill-rule="evenodd" clip-rule="evenodd" d="M709.435 47.8257H773.803C775.382 47.8257 776.678 49.1165 776.678 50.7023V92.8738C776.678 94.4534 775.388 95.7504 773.803 95.7504C744.486 95.7504 711.77 95.7504 709.435 95.7504C707.856 95.7504 706.56 94.4596 706.56 92.8738V50.7023C706.56 49.1165 707.856 47.8257 709.435 47.8257Z" fill="#B7D9F9"/>
<path fill-rule="evenodd" clip-rule="evenodd" d="M704.2 93.605C702.436 93.605 700.998 92.1667 700.998 90.4027V46.8913C700.998 45.1272 702.436 43.6889 704.2 43.6889H770.607C772.371 43.6889 773.809 45.1272 773.809 46.8913V90.4027C773.809 92.1667 772.365 93.605 770.607 93.605C740.786 93.605 706.443 93.605 704.2 93.605Z" fill="#D1B8FF"/>
<path fill-rule="evenodd" clip-rule="evenodd" d="M704.2 43.9225H770.607C772.242 43.9225 773.575 45.2563 773.575 46.8913V90.4028C773.575 92.0316 772.242 93.3716 770.607 93.3716C740.362 93.3716 706.609 93.3716 704.2 93.3716C702.571 93.3716 701.232 92.0377 701.232 90.4028V46.8913C701.238 45.2563 702.571 43.9225 704.2 43.9225Z" fill="white"/>
<path d="M749.899 79.2468C749.899 80.5314 749.684 81.5026 749.248 82.1664C748.812 82.8179 748.099 83.3035 747.091 83.6047C746.096 83.912 744.707 84.0657 742.937 84.0657V80.1626C743.988 80.138 744.713 79.9352 745.106 79.5357C745.506 79.1484 745.702 78.5399 745.702 77.7286V72.5655V72.3749C745.702 71.3854 746.016 70.5863 746.643 69.9655C747.269 69.3508 748.191 68.9452 749.408 68.7485V68.5334C746.999 68.1461 745.77 66.8676 745.702 64.7041V59.541C745.702 58.7419 745.506 58.1395 745.119 57.7523C744.719 57.3589 744 57.1438 742.937 57.1131V53.2285C744.707 53.2285 746.096 53.3821 747.103 53.6894C748.105 53.9906 748.83 54.4701 749.26 55.14C749.69 55.7977 749.899 56.7689 749.899 58.0289V63.5178V63.6899C749.899 64.6549 750.225 65.3802 750.883 65.8658C751.534 66.3513 752.566 66.5911 753.973 66.5911V70.7215C752.652 70.7215 751.638 70.9551 750.944 71.4284C750.25 71.9017 749.899 72.6946 749.899 73.8071V79.2468V79.2468ZM724.908 73.8071C724.908 72.8052 724.564 72.0369 723.864 71.5083C723.169 70.9858 722.162 70.7215 720.834 70.7215V66.5911C722.168 66.5911 723.182 66.339 723.87 65.835C724.558 65.331 724.908 64.6057 724.908 63.653V63.5178V58.0289C724.908 56.271 725.418 55.0294 726.451 54.3102C727.477 53.5911 729.283 53.2346 731.87 53.2346V57.1192C730.82 57.1561 730.094 57.3712 729.701 57.7769C729.302 58.1764 729.105 58.7665 729.105 59.5532V64.7164C729.038 66.8799 727.802 68.1584 725.381 68.5457V68.7608C727.864 69.1603 729.105 70.3835 729.105 72.418V72.5716V77.7347C729.105 78.5153 729.302 79.1054 729.689 79.5172C730.088 79.9168 730.807 80.138 731.87 80.1688V84.0718C729.283 84.0718 727.471 83.7153 726.451 82.9962C725.418 82.277 724.908 81.0293 724.908 79.2591V73.8071Z" fill="#E3D5FF"/>
<path fill-rule="evenodd" clip-rule="evenodd" d="M741.868 261.005H800.859C802.309 261.005 803.495 262.191 803.495 263.642V302.291C803.495 303.742 802.309 304.928 800.859 304.928C773.987 304.928 744.007 304.928 741.868 304.928C740.418 304.928 739.232 303.742 739.232 302.291V263.642C739.232 262.191 740.418 261.005 741.868 261.005Z" fill="#B7D9F9"/>
<path fill-rule="evenodd" clip-rule="evenodd" d="M737.069 302.961C735.453 302.961 734.132 301.64 734.132 300.023V260.144C734.132 258.528 735.453 257.206 737.069 257.206H797.933C799.55 257.206 800.871 258.528 800.871 260.144V300.023C800.871 301.64 799.55 302.961 797.933 302.961C770.601 302.961 739.121 302.961 737.069 302.961Z" fill="#D1B8FF"/>
<path fill-rule="evenodd" clip-rule="evenodd" d="M737.069 257.434H797.933C799.427 257.434 800.649 258.657 800.649 260.151V300.029C800.649 301.523 799.427 302.746 797.933 302.746C770.214 302.746 739.281 302.746 737.069 302.746C735.576 302.746 734.353 301.523 734.353 300.029V260.151C734.353 258.657 735.576 257.434 737.069 257.434Z" fill="white"/>
<path fill-rule="evenodd" clip-rule="evenodd" d="M771.91 277.539C773.317 279.979 772.482 283.096 770.048 284.503C767.609 285.911 764.493 285.075 763.086 282.641C761.679 280.201 762.515 277.084 764.948 275.677C767.388 274.269 770.509 275.105 771.91 277.539ZM776.734 272.634C776.205 271.976 775.609 271.38 774.952 270.852L776.101 268.467C776.187 268.282 776.119 268.061 775.941 267.957L773.778 266.709C773.6 266.604 773.373 266.66 773.262 266.826L771.757 269.014C770.976 268.713 770.165 268.497 769.335 268.368L769.133 265.725C769.114 265.523 768.948 265.363 768.739 265.363H766.245C766.042 265.363 765.87 265.523 765.851 265.725L765.643 268.368C764.813 268.497 764.002 268.719 763.221 269.02L761.728 266.832C761.611 266.66 761.384 266.61 761.206 266.715L759.049 267.963C758.871 268.067 758.803 268.288 758.889 268.473L760.032 270.87C759.381 271.399 758.785 271.989 758.263 272.646L755.872 271.497C755.688 271.411 755.467 271.479 755.362 271.657L754.115 273.82C754.01 273.999 754.066 274.226 754.232 274.343L756.419 275.849C756.118 276.629 755.903 277.441 755.774 278.271L753.132 278.467C752.929 278.48 752.769 278.652 752.769 278.861V281.356C752.769 281.559 752.929 281.731 753.132 281.749L755.774 281.958C755.903 282.788 756.124 283.6 756.425 284.38L754.238 285.874C754.066 285.991 754.016 286.218 754.121 286.396L755.368 288.56C755.473 288.738 755.694 288.806 755.878 288.72L758.275 287.576C758.797 288.228 759.393 288.818 760.038 289.34L758.895 291.738C758.809 291.922 758.877 292.143 759.055 292.248L761.212 293.496C761.39 293.6 761.618 293.545 761.734 293.379L763.228 291.191C764.008 291.492 764.819 291.707 765.649 291.842L765.858 294.491C765.876 294.694 766.042 294.854 766.251 294.854H768.746C768.948 294.854 769.12 294.694 769.139 294.491L769.335 291.848C770.165 291.719 770.976 291.498 771.757 291.197L773.262 293.385C773.379 293.557 773.606 293.606 773.778 293.502L775.941 292.254C776.119 292.149 776.187 291.928 776.101 291.744L774.952 289.353C775.603 288.83 776.199 288.234 776.728 287.583L779.124 288.726C779.309 288.812 779.53 288.744 779.634 288.566L780.882 286.402C780.986 286.224 780.931 285.997 780.765 285.88L778.571 284.386C778.872 283.606 779.094 282.794 779.223 281.965L781.871 281.756C782.074 281.737 782.234 281.571 782.234 281.362V278.867C782.234 278.664 782.074 278.492 781.871 278.473L779.229 278.277C779.1 277.447 778.878 276.636 778.577 275.855L780.765 274.349C780.937 274.232 780.986 274.005 780.882 273.827L779.634 271.663C779.53 271.485 779.309 271.417 779.124 271.503L776.734 272.634Z" fill="#E3D5FF"/>
<path fill-rule="evenodd" clip-rule="evenodd" d="M21.3537 214.163H83.3306C84.8545 214.163 86.0957 215.41 86.0957 216.929V257.539C86.0957 259.063 84.8483 260.305 83.3306 260.305C55.1012 260.305 23.6027 260.305 21.3537 260.305C19.8298 260.305 18.5885 259.057 18.5885 257.539V216.929C18.5824 215.404 19.8298 214.163 21.3537 214.163Z" fill="#B7D9F9"/>
<path fill-rule="evenodd" clip-rule="evenodd" d="M16.3088 258.24C14.6129 258.24 13.2241 256.851 13.2241 255.154V213.259C13.2241 211.563 14.6129 210.174 16.3088 210.174H80.2521C81.948 210.174 83.3368 211.563 83.3368 213.259V255.154C83.3368 256.851 81.948 258.24 80.2521 258.24C51.5434 258.24 18.4657 258.24 16.3088 258.24Z" fill="#D1B8FF"/>
<path fill-rule="evenodd" clip-rule="evenodd" d="M16.3089 210.407H80.2521C81.8252 210.407 83.1095 211.692 83.1095 213.265V255.16C83.1095 256.734 81.8252 258.018 80.2521 258.018C51.1256 258.018 18.6316 258.018 16.3089 258.018C14.7358 258.018 13.4515 256.734 13.4515 255.16V213.265C13.4577 211.692 14.742 210.407 16.3089 210.407Z" fill="white"/>
<path d="M56.6988 238.97L67.9684 234.342L56.6988 229.117V225.165L73.0564 233.333V235.688L56.6988 242.904V238.97ZM55.0765 222.165L46.0989 246.254H41.5395L50.5109 222.165H55.0765ZM39.8681 242.91L23.5105 235.694V233.34L39.8681 225.171V229.123L28.5984 234.348L39.8681 238.976V242.91Z" fill="#E3D5FF"/>
</svg>
