<svg width="26" height="21" viewBox="0 0 26 21" fill="none" xmlns="http://www.w3.org/2000/svg">
<path d="M25.3333 5.38815V16.7197C25.3333 18.6788 23.7666 20.2664 21.8333 20.2664H3.5C2.57174 20.2664 1.6815 19.8927 1.02513 19.2276C0.368749 18.5625 0 17.6604 0 16.7197V5.38815L12.2653 12.2247C12.5153 12.3638 12.8187 12.3638 13.068 12.2247L25.3333 5.38747V5.38815ZM21.8333 1.52526e-08C22.747 8.60344e-05 23.6244 0.362196 24.2781 1.00898C24.9318 1.65576 25.3101 2.53594 25.332 3.46149L12.6667 10.5209L0.00133324 3.46082L0.00266679 3.40002C0.0400018 2.4855 0.424804 1.62103 1.07661 0.987361C1.72841 0.353696 2.59673 -8.48167e-05 3.5 1.52526e-08H21.8333Z" fill="black"/>
</svg>
