<svg width="100" height="100" viewBox="0 0 100 100" fill="none" xmlns="http://www.w3.org/2000/svg">
<rect width="100" height="100" rx="5" fill="#F1FFEF"/>
<path d="M60.0141 47.5484C60.0141 47.5484 59.6132 44.0609 55.9205 44.0609C52.2278 44.0609 49.7021 44.5484 49.7021 46.6165C49.7021 48.6846 56.8854 48.6846 59.6132 49.4946C62.3411 50.3046 64.7497 52.4122 63.5472 56.1434C62.3447 59.8745 58.6519 60.2796 52.9514 60.2796C47.2545 60.2796 45.9703 55.4946 45.9703 53.6308H49.1806C49.1806 53.6308 48.7798 56.5484 52.5506 57.0358C56.3214 57.5233 59.929 57.7957 60.4149 54.8459C61.057 50.9534 48.2158 52.8996 47.0913 49.086C46.1406 45.8638 46.6904 41.6236 53.111 40.9749C59.5317 40.3261 63.0648 43.1899 63.0648 47.4624L60.0141 47.5484Z" fill="#44A13A"/>
<path d="M29 62.7491L36.0981 66.8889C39.6632 68.9677 44.1221 66.3692 44.1221 62.2079V54.9534V41.6021H41.2275V61.3979C41.2275 63.6702 38.7941 65.0896 36.8466 63.9534L31.891 61.0609V39.9355L50 29.3763L68.1054 39.9391V61.0645L50 71.6237L44.7855 68.5806L41.3801 69.9677L50.0035 74.9964L71.0035 62.7455V38.2509L50 26L29 38.2509V62.7491Z" fill="#44A13A"/>
</svg>
