<svg width="100" height="100" viewBox="0 0 100 100" fill="none" xmlns="http://www.w3.org/2000/svg">
<rect width="100" height="100" rx="5" fill="#DAF8FF"/>
<path d="M70.8503 36.4477C69.0015 33.5529 65.0261 32.3497 59.6691 33.0399C59.4796 33.0622 59.2789 33.0957 59.0904 33.118C59.0123 32.9396 58.9343 32.7612 58.8451 32.5839C56.5402 27.6952 53.3889 25 49.9588 25C46.5287 25 43.3662 27.6952 41.0725 32.5839C40.9944 32.7612 40.9052 32.9396 40.8271 33.118C40.6264 33.0845 40.4369 33.0622 40.2484 33.0399C34.8814 32.3385 30.9161 33.5529 29.0672 36.4477C27.2183 39.3425 27.7871 43.4517 30.6596 48.0181C31.0387 48.6191 31.4502 49.2213 31.8962 49.8112C31.4502 50.4122 31.0387 51.0032 30.6596 51.6043C27.7859 56.1695 27.2183 60.291 29.0672 63.1747C30.5704 65.5353 33.4886 66.772 37.4194 66.772C38.3616 66.7664 39.3028 66.704 40.2373 66.5824C40.4268 66.5601 40.6275 66.5267 40.816 66.5044C40.894 66.6828 40.9721 66.8601 41.0613 67.0385C43.3662 71.9272 46.5175 74.6224 49.9476 74.6224C53.3777 74.6224 56.5402 71.9272 58.8339 67.0385C58.912 66.8601 59.0012 66.6817 59.0793 66.5044C59.28 66.5378 59.4695 66.5601 59.658 66.5824C60.5913 66.7096 61.5325 66.772 62.4748 66.772C66.4055 66.772 69.3238 65.5353 70.8269 63.1747C72.6758 60.2787 72.1071 56.1695 69.2346 51.6043C68.8565 51.0032 68.4439 50.4011 67.9979 49.8112C68.4439 49.209 68.8554 48.6202 69.2346 48.0181C72.1416 43.4417 72.7104 39.3325 70.8503 36.4477ZM43.0875 33.5306C44.9698 29.5218 47.4754 27.2269 49.9588 27.2269C52.4421 27.2269 54.9478 29.5207 56.8301 33.5306C56.8312 33.5384 56.8357 33.5462 56.8412 33.5529C54.475 34.1216 52.1678 34.9077 49.9476 35.9024C47.7297 34.9033 45.4214 34.1171 43.054 33.5529C43.0763 33.5529 43.0763 33.5417 43.0875 33.5306ZM59.9925 49.8112C59.9925 51.5931 59.8966 53.374 59.7026 55.1459C58.3143 56.2654 56.8647 57.3069 55.3593 58.2637C53.623 59.3788 51.8143 60.3802 49.9465 61.26C48.0832 60.3735 46.2745 59.3732 44.5349 58.2637C43.0306 57.3036 41.581 56.2632 40.1915 55.1459C39.8057 51.5998 39.8057 48.0237 40.1915 44.4776C43.1934 42.0656 46.4674 40.0138 49.9465 38.3646C51.8099 39.25 53.6186 40.2514 55.3593 41.3598C56.8624 42.3199 58.3121 43.3603 59.7026 44.4787C59.8966 46.2484 59.9925 48.0292 59.9925 49.8112ZM62.119 46.5707C63.2096 47.5865 64.2366 48.6693 65.1934 49.8112C64.2366 50.9542 63.2096 52.0358 62.119 53.0517C62.186 51.9823 62.2194 50.9029 62.2194 49.8112C62.2194 48.7206 62.186 47.6401 62.119 46.5707ZM59.2465 58.3083C58.8953 60.2363 58.3845 62.132 57.7211 63.9764C55.9915 63.5861 54.2943 63.0643 52.644 62.4175C53.9576 61.7272 55.2723 60.9701 56.5747 60.146C57.4869 59.555 58.3779 58.9428 59.2465 58.3083ZM47.2747 62.4175C45.6266 63.0732 43.9294 63.5951 42.1965 63.9764C41.533 62.132 41.0223 60.2363 40.671 58.3083C41.5285 58.9428 42.4195 59.555 43.3428 60.1349C44.6464 60.9701 45.9611 61.7272 47.2747 62.4175ZM37.7985 53.0517C36.7079 52.0358 35.6809 50.9542 34.7241 49.8112C35.6809 48.6682 36.7079 47.5865 37.7985 46.5707C37.7316 47.6401 37.6981 48.7206 37.6981 49.8112C37.6981 50.9029 37.7316 51.9823 37.7985 53.0517ZM40.6721 41.3141C41.0234 39.386 41.5341 37.4903 42.1976 35.646C43.9271 36.0362 45.6243 36.557 47.2758 37.2049C45.9622 37.8951 44.6475 38.6523 43.3451 39.4764C42.4307 40.0674 41.5397 40.6796 40.6721 41.3141ZM56.5625 39.4764C55.27 38.6523 53.9564 37.884 52.6317 37.2049C54.2798 36.5492 55.977 36.0284 57.7099 35.646C58.3734 37.4892 58.883 39.386 59.2354 41.3141C58.3779 40.6796 57.4869 40.0674 56.5625 39.4764ZM32.5419 46.826C30.1801 43.0848 29.6013 39.7328 30.9384 37.6386C32.0077 35.9682 34.3238 35.0661 37.4528 35.0661C38.2903 35.0694 39.1277 35.1263 39.9585 35.2334H39.9808C39.0798 37.8528 38.4531 40.5591 38.1107 43.3068C36.3946 44.7386 34.7966 46.3064 33.3325 47.9958C33.0537 47.6178 32.7872 47.2275 32.5419 46.826ZM39.9473 64.3779C39.1166 64.486 38.2791 64.5418 37.4417 64.5451C34.3116 64.5451 31.9955 63.6542 30.9272 61.9726C29.5913 59.8784 30.17 56.5264 32.5307 52.7852C32.7761 52.3949 33.0426 51.9946 33.3213 51.6043C34.7844 53.2937 36.3823 54.8615 38.0985 56.2922C38.4419 59.0409 39.0686 61.7462 39.9696 64.3656C39.9696 64.3779 39.9585 64.3779 39.9473 64.3779ZM56.8301 66.0918C54.9478 70.1006 52.4421 72.3944 49.9588 72.3944C47.4754 72.3944 44.9698 70.1006 43.0875 66.0918C43.0864 66.084 43.0819 66.0762 43.0763 66.0695C45.4426 65.5008 47.7497 64.7135 49.9699 63.7188C52.1879 64.718 54.4962 65.5052 56.8635 66.0695C56.8412 66.0706 56.8412 66.0806 56.8301 66.0918ZM67.3757 52.7963C69.7375 56.5375 70.3162 59.8895 68.9792 61.9837C67.6433 64.0768 64.3571 64.9566 59.9702 64.3779H59.9479C60.8489 61.7585 61.4756 59.0532 61.8191 56.3045C63.5352 54.8727 65.1332 53.3048 66.5962 51.6165C66.8638 52.0046 67.1303 52.3949 67.3757 52.7963ZM61.8068 43.319C61.4645 40.5703 60.8367 37.865 59.9368 35.2456H59.9591C64.3459 34.678 67.631 35.5467 68.968 37.6398C70.304 39.7328 69.7252 43.0848 67.3645 46.8272C67.1192 47.2174 66.8527 47.6178 66.5739 48.0081C65.1165 46.3153 63.523 44.7475 61.8068 43.319Z" fill="#00B6DE"/>
</svg>
