<svg width="18" height="21" viewBox="0 0 18 21" fill="none" xmlns="http://www.w3.org/2000/svg">
<path d="M8.57147 0C10.8448 0 13.025 0.915091 14.6324 2.54396C16.2399 4.17284 17.1429 6.38206 17.1429 8.68564C17.1429 12.8359 14.3786 16.6562 8.95433 20.1536C8.83986 20.2272 8.70707 20.2663 8.57147 20.2663C8.43588 20.2663 8.30308 20.2272 8.18861 20.1536C2.7643 16.6562 0 12.8359 0 8.68564C0 6.38206 0.903063 4.17284 2.51053 2.54396C4.11799 0.915091 6.29818 0 8.57147 0ZM8.57147 5.79042C7.81371 5.79042 7.08698 6.09545 6.55116 6.63841C6.01534 7.18137 5.71431 7.91778 5.71431 8.68564C5.71431 9.45349 6.01534 10.1899 6.55116 10.7329C7.08698 11.2758 7.81371 11.5808 8.57147 11.5808C9.32924 11.5808 10.056 11.2758 10.5918 10.7329C11.1276 10.1899 11.4286 9.45349 11.4286 8.68564C11.4286 7.91778 11.1276 7.18137 10.5918 6.63841C10.056 6.09545 9.32924 5.79042 8.57147 5.79042Z" fill="black"/>
</svg>
