<svg width="100" height="100" viewBox="0 0 100 100" fill="none" xmlns="http://www.w3.org/2000/svg">
<rect width="100" height="100" rx="5" fill="#E9FFF5"/>
<path d="M74.3351 35.7143C74.3347 35.7029 74.3343 35.6915 74.3336 35.6796C74.3309 35.6392 74.3263 35.5995 74.3187 35.5606C74.3183 35.5587 74.3183 35.5568 74.3176 35.5553C74.3092 35.5122 74.2973 35.4706 74.2832 35.4301C74.2805 35.4221 74.2775 35.4141 74.2744 35.4065C74.2603 35.3683 74.2443 35.3313 74.2256 35.2955C74.2245 35.2928 74.2233 35.2898 74.2214 35.2867C74.2012 35.2489 74.1783 35.2131 74.1535 35.1784C74.1478 35.1704 74.1417 35.1624 74.1356 35.1547C74.1093 35.1204 74.0818 35.0872 74.0517 35.0571C74.0513 35.0567 74.0509 35.0563 74.0505 35.0559L64.2811 25.2861C64.2807 25.2857 64.2803 25.2857 64.2799 25.2853C64.2494 25.2548 64.2166 25.2274 64.1823 25.2014C64.1743 25.1949 64.1663 25.1892 64.1582 25.1831C64.1235 25.1583 64.0877 25.1354 64.0503 25.1152C64.0469 25.1137 64.0438 25.1122 64.0408 25.1106C64.0053 25.0923 63.9687 25.0763 63.9309 25.0622C63.9229 25.0591 63.9149 25.0561 63.9065 25.0534C63.866 25.0393 63.8248 25.0275 63.7821 25.0191C63.7798 25.0187 63.7772 25.0183 63.7749 25.0179C63.7367 25.0107 63.6974 25.0061 63.6578 25.0034C63.6456 25.0027 63.6337 25.0019 63.6219 25.0015C63.6112 25.0011 63.6009 25 63.5902 25H36.2354C35.6956 25 35.2581 25.4375 35.2581 25.9769V30.9696H28.0022C26.347 30.9696 25 32.3162 25 33.9718V45.5528C25 47.2084 26.347 48.555 28.0022 48.555H35.2581V74.0231C35.2581 74.5625 35.6956 75 36.235 75H73.3597C73.8995 75 74.3366 74.5625 74.3366 74.0231V35.7468C74.337 35.7357 74.3355 35.725 74.3351 35.7143ZM64.5672 28.3356L71.0011 34.7698H64.5672V28.3356ZM37.2124 73.0461V48.555H37.5526C38.0924 48.555 38.5296 48.1174 38.5296 47.578C38.5296 47.0387 38.0924 46.6011 37.5526 46.6011H28.0022C27.4242 46.6011 26.9539 46.1308 26.9539 45.5528V33.9718C26.9539 33.3939 27.4242 32.9235 28.0022 32.9235H45.3476C45.9255 32.9235 46.3955 33.3939 46.3955 33.9718V45.5528C46.3955 46.1311 45.9255 46.6011 45.3476 46.6011C44.8078 46.6011 44.3707 47.0387 44.3707 47.578C44.3707 48.1174 44.8078 48.555 45.3476 48.555H45.3682C45.3777 48.555 45.3869 48.555 45.396 48.5546C47.0291 48.5287 48.3494 47.192 48.3494 45.5528V33.9718C48.3494 32.3166 47.0028 30.9696 45.3472 30.9696H37.212V26.9539H62.6133V35.7468C62.6133 36.2862 63.0505 36.7237 63.5902 36.7237H72.3827V73.0461H37.2124Z" fill="#41B883"/>
<path d="M47.9588 56.3606H67.498C68.0378 56.3606 68.475 55.9235 68.475 55.3837C68.475 54.8443 68.0378 54.4067 67.498 54.4067H47.9588C47.4194 54.4067 46.9818 54.8443 46.9818 55.3837C46.9818 55.9235 47.4194 56.3606 47.9588 56.3606Z" fill="#41B883"/>
<path d="M44.4118 60.2791C44.6621 60.2791 44.9119 60.1833 45.1027 59.9926C45.4841 59.6111 45.4841 58.9928 45.1027 58.6109L42.8924 56.4007L45.1622 54.1309C45.5437 53.7495 45.5437 53.1307 45.1622 52.7492C44.7807 52.3678 44.162 52.3678 43.7805 52.7492L40.8199 55.7098C40.4384 56.0913 40.4384 56.71 40.8199 57.0915L43.721 59.9926C43.9117 60.1837 44.162 60.2791 44.4118 60.2791Z" fill="#41B883"/>
<path d="M65.7081 62.519C65.3267 62.1375 64.7083 62.1375 64.3264 62.519C63.945 62.9005 63.945 63.5192 64.3264 63.9007L66.5371 66.1109L64.2669 68.3807C63.8855 68.7621 63.8855 69.3809 64.2669 69.7624C64.4581 69.9531 64.7079 70.0485 64.9578 70.0485C65.208 70.0485 65.4579 69.9531 65.6486 69.7624L68.6092 66.8018C68.9911 66.4203 68.9911 65.8016 68.6092 65.4201L65.7081 62.519Z" fill="#41B883"/>
<path d="M61.6364 58.3149H47.9588C47.4194 58.3149 46.9818 58.7521 46.9818 59.2919C46.9818 59.8313 47.4194 60.2688 47.9588 60.2688H61.6364C62.1758 60.2688 62.6133 59.8313 62.6133 59.2919C62.6133 58.7521 62.1758 58.3149 61.6364 58.3149Z" fill="#41B883"/>
<path d="M61.6364 62.2227H47.9588C47.4194 62.2227 46.9818 62.6602 46.9818 63.1996C46.9818 63.739 47.4194 64.1765 47.9588 64.1765H61.6364C62.1758 64.1765 62.6133 63.739 62.6133 63.1996C62.6133 62.6602 62.1758 62.2227 61.6364 62.2227Z" fill="#41B883"/>
<path d="M61.6363 66.1201H42.0971C41.5573 66.1201 41.1201 66.5577 41.1201 67.0971C41.1201 67.6365 41.5573 68.074 42.0971 68.074H61.6363C62.1757 68.074 62.6133 67.6365 62.6133 67.0971C62.6133 66.5577 62.1757 66.1201 61.6363 66.1201Z" fill="#41B883"/>
<path d="M40.7372 48.2269C40.7822 48.2715 40.8318 48.3127 40.8856 48.3478C40.9382 48.3829 40.995 48.4134 41.0546 48.4378C41.1133 48.4622 41.1747 48.4805 41.2373 48.4935C41.2998 48.5061 41.3643 48.513 41.428 48.513C41.4913 48.513 41.5558 48.5061 41.6191 48.4935C41.6809 48.4805 41.7423 48.4622 41.8018 48.4378C41.8606 48.4134 41.9174 48.3829 41.9701 48.3478C42.0239 48.3127 42.0735 48.2715 42.1185 48.2269C42.1635 48.1818 42.2047 48.1311 42.2405 48.0781C42.276 48.0243 42.3062 47.9678 42.3306 47.9091C42.355 47.8507 42.3737 47.7889 42.3863 47.7264C42.3988 47.663 42.405 47.5993 42.405 47.5349C42.405 47.4715 42.3988 47.4078 42.3863 47.3445C42.3737 47.282 42.355 47.2205 42.3306 47.1618C42.3062 47.103 42.276 47.0466 42.2405 46.9928C42.2047 46.9402 42.1635 46.8894 42.1185 46.8444C42.0735 46.7994 42.0239 46.7582 41.9701 46.7231C41.9174 46.688 41.8606 46.6579 41.8018 46.6335C41.7423 46.609 41.6809 46.5904 41.6191 46.5778C41.4932 46.5522 41.3632 46.5522 41.2373 46.5778C41.1747 46.5904 41.1133 46.609 41.0546 46.6335C40.995 46.6579 40.9382 46.688 40.8856 46.7231C40.8318 46.7582 40.7822 46.7994 40.7372 46.8444C40.6922 46.8894 40.651 46.9402 40.6159 46.9928C40.5808 47.0466 40.5506 47.1034 40.5262 47.1618C40.5018 47.2205 40.4831 47.282 40.4705 47.3445C40.4575 47.4078 40.4507 47.4715 40.4507 47.5349C40.4507 47.5993 40.4575 47.663 40.4705 47.7264C40.4831 47.7889 40.5018 47.8507 40.5262 47.9091C40.5506 47.9678 40.5808 48.0247 40.6159 48.0781C40.651 48.1311 40.6922 48.1818 40.7372 48.2269Z" fill="#41B883"/>
<g clip-path="url(#clip0)">
<path d="M36.9843 44.3197L31.6173 35.35H33.1856L36.7001 41.1901L37.0014 41.6907L37.3006 41.1889L40.7823 35.35H42.381L36.9843 44.3197Z" stroke="#41B883" stroke-width="0.7"/>
<path d="M36.9986 38.3286L34.0026 33.35H35.4166L36.7142 35.4892L37.0151 35.9852L37.3136 35.4878L38.5967 33.35H39.9673L36.9986 38.3286Z" stroke="#41B883" stroke-width="0.7"/>
</g>
<defs>
<clipPath id="clip0">
<rect width="12" height="10" fill="white" transform="translate(31 35)"/>
</clipPath>
</defs>
</svg>
